<?xml version="1.0" encoding="iso-8859-1"?>
<!-- Generator: Adobe Illustrator 25.0.1, SVG Export Plug-In . SVG Version: 6.00 Build 0)  -->
<svg version="1.1" id="Layer_1" xmlns="http://www.w3.org/2000/svg" xmlns:xlink="http://www.w3.org/1999/xlink" x="0px" y="0px"
	 viewBox="0 0 14 17" style="enable-background:new 0 0 14 17;" xml:space="preserve">
<polygon points="13,7 13,5 12,5 12,4 10,4 10,0 7,0 7,1 6,1 6,3 4,3 4,4 2,4 2,5 1,5 1,7 0,7 0,13 1,13 1,15 2,15 2,16 3,16 3,17 
	11,17 11,16 12,16 12,15 13,15 13,13 14,13 14,7 "/>
<polyline style="fill:#FF1C2B;" points="7,4 6,4 5,4 5,5 4,5 3,5 3,6 2,6 2,7 2,8 1,8 1,9 1,10 1,11 1,12 2,12 2,13 2,14 3,14 3,15 
	4,15 4,16 5,16 6,16 6,15 7,15 8,15 8,16 9,16 10,16 10,15 11,15 11,14 12,14 12,13 12,12 13,12 13,11 13,10 13,9 13,8 12,8 12,7 
	12,6 11,6 11,5 10,5 9,5 9,4 8,4 "/>
<g>
	<rect x="8" y="1" style="fill:#77340D;" width="1" height="1"/>
	<rect x="8" y="2" style="fill:#441E07;" width="1" height="1"/>
	<polygon style="fill:#77340D;" points="8,3 8,2 7,2 7,3 7,4 8,4 	"/>
	<rect x="5" y="4" style="fill:#D31623;" width="1" height="1"/>
	<rect x="6" y="4" style="fill:#B2131E;" width="1" height="1"/>
	<rect x="7" y="4" style="fill:#301504;" width="1" height="1"/>
	<rect x="8" y="4" style="fill:#441E07;" width="1" height="1"/>
	<polygon style="fill:#D31623;" points="5,6 5,5 4,5 3,5 3,6 4,6 	"/>
	<rect x="5" y="5" style="fill:#F01928;" width="1" height="1"/>
	<polygon style="fill:#542409;" points="7,5 6,5 6,6 7,6 8,6 8,5 	"/>
	<rect x="8" y="5" style="fill:#B4131E;" width="1" height="1"/>
	<polygon style="fill:#7D0D14;" points="10,6 11,6 11,5 10,5 9,5 9,6 	"/>
	<rect x="3" y="6" style="fill:#F01928;" width="1" height="1"/>
	<polygon style="fill:#FF1C2B;" points="6,6 5,6 4,6 4,7 5,7 6,7 7,7 7,6 	"/>
	<rect x="7" y="6" style="fill:#B4131E;" width="1" height="1"/>
	<polygon style="fill:#B4131E;" points="9,6 9,7 10,7 10,8 11,8 11,7 11,6 10,6 	"/>
	<polygon style="fill:#D31623;" points="3,7 3,6 2,6 2,7 2,8 3,8 	"/>
	<rect x="3" y="7" style="fill:#FF1C2B;" width="1" height="1"/>
	<rect x="4" y="7" style="fill:#FFAAAF;" width="1" height="1"/>
	<rect x="5" y="7" style="fill:#FF969D;" width="1" height="1"/>
	<rect x="6" y="7" style="fill:#FF5E69;" width="1" height="1"/>
	<polygon style="fill:#7D0D14;" points="11,8 12,8 12,7 12,6 11,6 11,7 	"/>
	<rect x="2" y="8" style="fill:#F01928;" width="1" height="1"/>
	<rect x="3" y="8" style="fill:#FFA0A6;" width="1" height="1"/>
	<polygon style="fill:#FF969D;" points="4,8 4,9 4,10 5,10 5,9 5,8 	"/>
	<rect x="5" y="8" style="fill:#FF5E69;" width="1" height="1"/>
	<polygon style="fill:#DD1725;" points="10,9 10,10 10,11 11,11 11,10 11,9 11,8 10,8 	"/>
	<rect x="12" y="8" style="fill:#7D0D14;" width="1" height="1"/>
	<rect x="3" y="9" style="fill:#FF535E;" width="1" height="1"/>
	<polygon style="fill:#54090E;" points="12,10 12,11 12,12 13,12 13,11 13,10 13,9 12,9 	"/>
	<polygon style="fill:#D31623;" points="2,10 2,9 2,8 1,8 1,9 1,10 1,11 2,11 	"/>
	<polygon style="fill:#F01928;" points="10,10 10,9 9,9 9,10 9,11 10,11 	"/>
	<polygon style="fill:#B4131E;" points="12,10 12,9 12,8 11,8 11,9 11,10 11,11 11,12 12,12 12,11 	"/>
	<rect x="1" y="11" style="fill:#B2131E;" width="1" height="1"/>
	<polygon style="fill:#FF1C2B;" points="4,12 4,13 5,13 6,13 6,12 7,12 8,12 8,11 9,11 9,10 9,9 10,9 10,8 10,7 9,7 9,6 8,6 8,7 
		7,7 7,8 6,8 6,9 5,9 5,10 4,10 3,10 3,9 2,9 2,10 2,11 2,12 3,12 	"/>
	<rect x="8" y="11" style="fill:#F01928;" width="1" height="1"/>
	<rect x="9" y="11" style="fill:#DD1725;" width="1" height="1"/>
	<rect x="10" y="11" style="fill:#C51421;" width="1" height="1"/>
	<polygon style="fill:#9E111A;" points="3,12 2,12 2,13 2,14 3,14 3,13 	"/>
	<rect x="3" y="12" style="fill:#DD1725;" width="1" height="1"/>
	<polygon style="fill:#F01928;" points="8,13 8,12 7,12 6,12 6,13 7,13 	"/>
	<rect x="8" y="12" style="fill:#DD1725;" width="1" height="1"/>
	<rect x="9" y="12" style="fill:#C51421;" width="1" height="1"/>
	<polygon style="fill:#B4131E;" points="11,12 10,12 10,13 9,13 9,14 8,14 8,15 9,15 10,15 10,14 11,14 11,13 	"/>
	<polygon style="fill:#54090E;" points="11,13 11,14 12,14 12,13 12,12 11,12 	"/>
	<polygon style="fill:#DD1725;" points="7,13 6,13 5,13 5,14 6,14 7,14 8,14 8,13 	"/>
	<rect x="8" y="13" style="fill:#C51421;" width="1" height="1"/>
	<rect x="3" y="14" style="fill:#54090E;" width="1" height="1"/>
	<polygon style="fill:#B4131E;" points="5,14 5,13 4,13 3,13 3,14 4,14 4,15 5,15 6,15 6,14 	"/>
	<polygon style="fill:#351705;" points="7,14 6,14 6,15 7,15 8,15 8,14 	"/>
	<rect x="10" y="14" style="fill:#54090E;" width="1" height="1"/>
	<polygon style="fill:#54090E;" points="4,15 4,16 5,16 6,16 6,15 5,15 	"/>
	<polygon style="fill:#54090E;" points="8,15 8,16 9,16 10,16 10,15 9,15 	"/>
</g>
</svg>
