<?xml version="1.0" encoding="utf-8"?>
<!-- Generator: Adobe Illustrator 25.0.1, SVG Export Plug-In . SVG Version: 6.00 Build 0)  -->
<svg version="1.1" id="edit_icon_1-line--c"
	 xmlns="http://www.w3.org/2000/svg" xmlns:xlink="http://www.w3.org/1999/xlink" x="0px" y="0px" viewBox="0 0 22 14"
	 style="enable-background:new 0 0 22 14;" xml:space="preserve">

<style type="text/css">
	/*
	Classes Used by IE and MSEdge with Mono Parent Color Fallback for IE
	Chrome, Chromium Edge, and Firefox use the 'fill' Attributes Over the Classes
	==============================================================================  */
	.edit_icon_1-line--color1{
		fill: currentColor;
		fill: var(--color-1, currentColor);
	}
</style>
<path class="edit_icon_1-line--color1" fill="var(--color-1, currentColor)" d="M21,2V1h-1V0h-1h-1v1h-1v1h1v1h1v1h1v1h1V4h1V3V2H21z"/>
<path class="edit_icon_1-line--color1" fill="var(--color-1, currentColor)" d="M18,4h-1V3h-1h-1v1h-1v1h-1v1h-1v1h-1v1h-1v1v1h1v1h1v1h1h1v-1h1v-1h1V9h1V8h1V7h1V6V5h-1V4z"/>
<path class="edit_icon_1-line--color1" fill="var(--color-1, currentColor)" d="M11,12h-1v-1H9v-1H8v1v1v1v1h1h1h1h1v-1h-1V12z"/>
<path class="edit_icon_1-line--color1" fill="var(--color-1, currentColor)" d="M3,14h1h1h1v-1H5H4H3H2H1H0v1h1h1H3z"/>
</svg>
