<?xml version="1.0" encoding="utf-8"?>
<!-- Generator: Adobe Illustrator 25.0.1, SVG Export Plug-In . SVG Version: 6.00 Build 0)  -->
<svg version="1.1" id="edit_icon--c" xmlns="http://www.w3.org/2000/svg" xmlns:xlink="http://www.w3.org/1999/xlink" x="0px"
	 y="0px" viewBox="0 0 22 16" style="enable-background:new 0 0 22 16;" xml:space="preserve">

<style type="text/css">
	/*
	Classes Used by IE and MSEdge with Mono Parent Color Fallback for IE
	Chrome, Chromium Edge, and Firefox use the 'fill' Attributes Over the Classes
	==============================================================================  */
	.edit_icon--color1{
		fill: currentColor;
		fill: var(--color-1, currentColor);
	}
</style>
<g>
	<polygon class="edit_icon--color1" fill="var(--color-1, currentColor)" points="21,2 21,1 20,1 20,0 19,0 18,0 18,1 17,1 17,2 18,2 18,3 19,3 19,4 20,4 20,5 21,5 21,4 22,4 22,3
		22,2 	"/>
	<polygon class="edit_icon--color1" fill="var(--color-1, currentColor)" points="18,4 17,4 17,3 16,3 15,3 15,4 14,4 14,5 13,5 13,6 12,6 12,7 11,7 11,8 10,8 10,9 10,10 11,10 11,11
		12,11 12,12 13,12 14,12 14,11 15,11 15,10 16,10 16,9 17,9 17,8 18,8 18,7 19,7 19,6 19,5 18,5 	"/>
	<polygon class="edit_icon--color1" fill="var(--color-1, currentColor)" points="11,12 10,12 10,11 9,11 9,10 8,10 8,11 8,12 8,13 8,14 9,14 10,14 11,14 12,14 12,13 11,13 	"/>
	<polygon class="edit_icon--color1" fill="var(--color-1, currentColor)" points="3,14 4,14 5,14 6,14 6,13 5,13 4,13 3,13 2,13 1,13 0,13 0,14 1,14 2,14 	"/>
	<polygon class="edit_icon--color1" fill="var(--color-1, currentColor)" points="6,15 5,15 4,15 3,15 2,15 2,16 3,16 4,16 5,16 6,16 7,16 8,16 8,15 7,15 	"/>
</g>
</svg>
