<?xml version="1.0" encoding="iso-8859-1"?>
<!-- Generator: Adobe Illustrator 24.2.3, SVG Export Plug-In . SVG Version: 6.00 Build 0)  -->
<svg version="1.1" id="home-aznb--10x10--c" xmlns="http://www.w3.org/2000/svg" xmlns:xlink="http://www.w3.org/1999/xlink"
	 x="0px" y="0px" viewBox="0 0 10 10" style="enable-background:new 0 0 10 10;" xml:space="preserve">

<style type="text/css">
	/*
	Classes Used by IE and MSEdge with Mono Parent Color Fallback for IE
	Chrome, Chromium Edge, and Firefox use the 'fill' Attributes Over the Classes
	==============================================================================  */
	.home-aznb--10x10--color1{
		fill: currentColor;
		fill: var(--color-1, currentColor);
	}
</style>
<g id="Structure" class="home-aznb--10x10--color1" fill="var(--color-1, currentColor)" >
	<polygon points="9,4 9,3 8,3 8,2 7,2 7,1 6,1 6,0 5,0 4,0 4,1 3,1 3,2 2,2 2,3 1,3 1,4
		0,4 0,5 0,6 1,6 1,7 1,8 1,9 1,10 2,10 3,10 4,10 4,9 4,8 4,7 5,7 6,7 6,8 6,9 6,10 7,10 8,10 9,10 9,9 9,8 9,7 9,6 10,6 10,5 10,4
		"/>
</g>
</svg>
