<?xml version="1.0" encoding="iso-8859-1"?>
<!-- Generator: Adobe Illustrator 24.2.3, SVG Export Plug-In . SVG Version: 6.00 Build 0)  -->
<svg version="1.1" id="home-aznb--12x12--c" xmlns="http://www.w3.org/2000/svg" xmlns:xlink="http://www.w3.org/1999/xlink"
	 x="0px" y="0px" viewBox="0 0 12 12" style="enable-background:new 0 0 12 12;" xml:space="preserve">

<style type="text/css">
	/*
	Classes Used by IE and MSEdge with Mono Parent Color Fallback for IE
	Chrome, Chromium Edge, and Firefox use the 'fill' Attributes Over the Classes
	==============================================================================  */
	.home-aznb--12x12--color1{
		fill: currentColor;
		fill: var(--color-1, currentColor);
	}
</style>
<g id="Structure" class="home-aznb--12x12--color1" fill="var(--color-1, currentColor)" >
	<polygon points="11,5 11,4 10,4 10,3 9,3 9,2 8,2 8,1 7,1 7,0 6,0 5,0 5,1 4,1 4,2 3,2 3,3 2,3 2,4 1,4 1,5
		0,5 0,6 0,7 1,7 2,7 2,8 2,9 2,10 2,11 2,12 3,12 4,12 5,12 5,11 5,10 5,9 5,8 6,8 7,8 7,9 7,10 7,11 7,12 8,12 9,12 10,12 10,11
		10,10 10,9 10,8 10,7 11,7 12,7 12,6 12,5 "/>
</g>
</svg>
