<?xml version="1.0" encoding="iso-8859-1"?>
<!-- Generator: Adobe Illustrator 24.2.3, SVG Export Plug-In . SVG Version: 6.00 Build 0)  -->
<svg version="1.1" id="Layer_1" xmlns="http://www.w3.org/2000/svg" xmlns:xlink="http://www.w3.org/1999/xlink" x="0px" y="0px"
	 viewBox="0 0 9 9" style="enable-background:new 0 0 9 9;" xml:space="preserve">
<g>
	<polygon style="fill:#402A00;" points="4,1 5,1 6,1 7,1 7,0 6,0 5,0 4,0 3,0 2,0 2,1 3,1 	"/>
	<rect x="1" y="1" style="fill:#402A00;" width="1" height="1"/>
	<polygon style="fill:#FFFED9;" points="3,2 4,2 5,2 6,2 7,2 7,1 6,1 5,1 4,1 3,1 2,1 2,2 	"/>
	<rect x="7" y="1" style="fill:#402A00;" width="1" height="1"/>
	<rect x="1" y="2" style="fill:#FFFED9;" width="1" height="1"/>
	<polygon style="fill:#FFE263;" points="6,2 5,2 5,3 6,3 7,3 7,4 8,4 8,3 8,2 7,2 	"/>
	<polygon style="fill:#402A00;" points="8,2 8,3 8,4 8,5 8,6 8,7 9,7 9,6 9,5 9,4 9,3 9,2 	"/>
	<polygon style="fill:#FFDC16;" points="6,4 6,3 5,3 5,2 4,2 3,2 2,2 2,3 3,3 3,4 4,4 4,5 5,5 5,4 	"/>
	<polygon style="fill:#DFB215;" points="3,4 3,3 2,3 2,4 2,5 2,6 3,6 3,5 4,5 4,4 	"/>
	<polygon style="fill:#DFB215;" points="7,4 7,3 6,3 6,4 5,4 5,5 6,5 6,6 7,6 7,5 	"/>
	<polygon style="fill:#FFDC16;" points="7,5 7,6 8,6 8,5 8,4 7,4 	"/>
	<polygon style="fill:#402A00;" points="1,5 1,4 1,3 1,2 0,2 0,3 0,4 0,5 0,6 0,7 1,7 1,6 	"/>
	<rect x="4" y="5" style="fill:#DFB215;" width="1" height="1"/>
	<polygon style="fill:#FFDC16;" points="3,7 4,7 5,7 6,7 7,7 7,6 6,6 6,5 5,5 5,6 4,6 4,5 3,5 3,6 2,6 2,5 2,4 2,3 1,3 1,4 1,5 1,6 
		1,7 2,7 	"/>
	<rect x="7" y="6" style="fill:#B17818;" width="1" height="1"/>
	<rect x="1" y="7" style="fill:#402A00;" width="1" height="1"/>
	<polygon style="fill:#B17818;" points="6,7 5,7 4,7 3,7 2,7 2,8 3,8 4,8 5,8 6,8 7,8 7,7 	"/>
	<rect x="7" y="7" style="fill:#402A00;" width="1" height="1"/>
	<polygon style="fill:#402A00;" points="5,8 4,8 3,8 2,8 2,9 3,9 4,9 5,9 6,9 7,9 7,8 6,8 	"/>
</g>
</svg>
