<?xml version="1.0" encoding="iso-8859-1"?>
<!-- Generator: Adobe Illustrator 24.2.3, SVG Export Plug-In . SVG Version: 6.00 Build 0)  -->
<svg version="1.1" id="Layer_1" xmlns="http://www.w3.org/2000/svg" xmlns:xlink="http://www.w3.org/1999/xlink" x="0px" y="0px"
	 viewBox="0 0 18 14" style="enable-background:new 0 0 18 14;" xml:space="preserve">
<g>
	<polygon style="fill:#5E5D5E;" points="9,1 10,1 11,1 12,1 12,0 11,0 10,0 9,0 8,0 7,0 7,1 8,1 	"/>
	<rect x="3" y="1" style="fill:#5E5D5E;" width="1" height="1"/>
	<rect x="12" y="1" style="fill:#5E5D5E;" width="1" height="1"/>
	<rect x="2" y="2" style="fill:#5E5D5E;" width="1" height="1"/>
	<rect x="4" y="2" style="fill:#5E5D5E;" width="1" height="1"/>
	<polygon style="fill:#424142;" points="10,2 9,2 8,2 7,2 7,3 8,3 9,3 10,3 11,3 11,2 	"/>
	<rect x="13" y="2" style="fill:#5E5D5E;" width="1" height="1"/>
	<rect x="1" y="3" style="fill:#5E5D5E;" width="1" height="1"/>
	<rect x="5" y="3" style="fill:#5E5D5E;" width="1" height="1"/>
	<rect x="11" y="3" style="fill:#424142;" width="1" height="1"/>
	<rect x="14" y="3" style="fill:#5E5D5E;" width="1" height="1"/>
	<rect y="4" style="fill:#5E5D5E;" width="1" height="1"/>
	<rect x="6" y="4" style="fill:#5E5D5E;" width="1" height="1"/>
	<rect x="12" y="4" style="fill:#424142;" width="1" height="1"/>
	<rect x="15" y="4" style="fill:#5E5D5E;" width="1" height="1"/>
	<rect x="2" y="9" style="fill:#424142;" width="1" height="1"/>
	<rect x="5" y="9" style="fill:#5E5D5E;" width="1" height="1"/>
	<rect x="11" y="9" style="fill:#424142;" width="1" height="1"/>
	<polygon style="fill:#4E4D4E;" points="16,9 16,8 16,7 16,6 16,5 15,5 15,4 14,4 14,3 13,3 13,2 12,2 12,1 11,1 10,1 9,1 8,1 7,1 
		7,2 8,2 9,2 10,2 11,2 11,3 12,3 12,4 13,4 13,5 13,6 13,7 13,8 13,9 12,9 12,10 13,10 13,11 14,11 14,12 15,12 15,11 16,11 16,10 
		17,10 17,9 	"/>
	<rect x="17" y="9" style="fill:#424142;" width="1" height="1"/>
	<rect x="3" y="10" style="fill:#424142;" width="1" height="1"/>
	<rect x="6" y="10" style="fill:#5E5D5E;" width="1" height="1"/>
	<rect x="12" y="10" style="fill:#424142;" width="1" height="1"/>
	<rect x="16" y="10" style="fill:#424142;" width="1" height="1"/>
	<rect x="4" y="11" style="fill:#424142;" width="1" height="1"/>
	<polygon style="fill:#5E5D5E;" points="9,11 8,11 7,11 7,12 8,12 9,12 10,12 11,12 11,11 10,11 	"/>
	<rect x="13" y="11" style="fill:#424142;" width="1" height="1"/>
	<rect x="15" y="11" style="fill:#424142;" width="1" height="1"/>
	<rect x="5" y="12" style="fill:#424142;" width="1" height="1"/>
	<polygon style="fill:#4E4D4E;" points="9,12 8,12 7,12 7,11 6,11 6,10 5,10 5,9 5,8 5,7 5,6 5,5 6,5 6,4 5,4 5,3 4,3 4,2 3,2 3,3 
		2,3 2,4 1,4 1,5 2,5 2,6 2,7 2,8 2,9 3,9 3,10 4,10 4,11 5,11 5,12 6,12 6,13 7,13 8,13 9,13 10,13 11,13 11,12 10,12 	"/>
	<rect x="14" y="12" style="fill:#424142;" width="1" height="1"/>
	<polygon style="fill:#424142;" points="9,13 8,13 7,13 6,13 6,14 7,14 8,14 9,14 10,14 11,14 11,13 10,13 	"/>
</g>
</svg>
