<?xml version="1.0" encoding="iso-8859-1"?>
<!-- Generator: Adobe Illustrator 24.2.3, SVG Export Plug-In . SVG Version: 6.00 Build 0)  -->
<svg version="1.1" id="Layer_1" xmlns="http://www.w3.org/2000/svg" xmlns:xlink="http://www.w3.org/1999/xlink" x="0px" y="0px"
	 viewBox="0 0 18 19" style="enable-background:new 0 0 18 19;" xml:space="preserve">
<g>
	<polygon style="fill:#464646;" points="17,0 17,1 16,1 16,2 17,2 17,3 17,4 17,5 17,6 17,7 17,8 17,9 16,9 15,9 14,9 13,9 12,9 
		11,9 10,9 10,8 9,8 9,9 8,9 8,10 9,10 10,10 11,10 12,10 13,10 14,10 15,10 16,10 17,10 18,10 18,9 18,8 18,7 18,6 18,5 18,4 18,3 
		18,2 18,1 18,0 	"/>
	<polygon style="fill:#464646;" points="8,2 9,2 10,2 11,2 12,2 12,1 11,1 10,1 9,1 8,1 7,1 6,1 6,2 7,2 	"/>
	<polygon style="fill:#464646;" points="6,3 6,2 5,2 4,2 4,3 5,3 	"/>
	<polygon style="fill:#D5DEF4;" points="7,3 8,3 9,3 10,3 11,3 12,3 12,2 11,2 10,2 9,2 8,2 7,2 6,2 6,3 	"/>
	<polygon style="fill:#464646;" points="13,3 14,3 14,2 13,2 12,2 12,3 	"/>
	<rect x="15" y="2" style="fill:#464646;" width="1" height="1"/>
	<rect x="16" y="2" style="fill:#D5DEF4;" width="1" height="1"/>
	<rect x="3" y="3" style="fill:#464646;" width="1" height="1"/>
	<polygon style="fill:#D5DEF4;" points="5,4 6,4 6,3 5,3 4,3 4,4 	"/>
	<rect x="6" y="3" style="fill:#BBC9ED;" width="1" height="1"/>
	<polygon style="fill:#A6B8E8;" points="10,3 9,3 8,3 7,3 7,4 8,4 9,4 10,4 11,4 11,3 	"/>
	<rect x="11" y="3" style="fill:#BBC9ED;" width="1" height="1"/>
	<polygon style="fill:#D5DEF4;" points="12,3 12,4 13,4 14,4 14,3 13,3 	"/>
	<rect x="14" y="3" style="fill:#464646;" width="1" height="1"/>
	<rect x="15" y="3" style="fill:#D5DEF4;" width="1" height="1"/>
	<polygon style="fill:#BBC9ED;" points="16,4 15,4 15,5 14,5 14,4 13,4 13,5 13,6 13,7 12,7 12,8 13,8 14,8 15,8 16,8 17,8 17,7 
		17,6 17,5 17,4 17,3 16,3 	"/>
	<rect x="2" y="4" style="fill:#464646;" width="1" height="1"/>
	<rect x="3" y="4" style="fill:#D5DEF4;" width="1" height="1"/>
	<rect x="4" y="4" style="fill:#BBC9ED;" width="1" height="1"/>
	<polygon style="fill:#A6B8E8;" points="6,4 5,4 5,5 6,5 7,5 7,4 	"/>
	<polygon style="fill:#464646;" points="10,4 9,4 8,4 7,4 7,5 8,5 9,5 10,5 11,5 11,4 	"/>
	<polygon style="fill:#A6B8E8;" points="13,5 13,4 12,4 11,4 11,5 12,5 	"/>
	<rect x="14" y="4" style="fill:#D5DEF4;" width="1" height="1"/>
	<rect x="2" y="5" style="fill:#D5DEF4;" width="1" height="1"/>
	<polygon style="fill:#BBC9ED;" points="3,6 2,6 2,7 2,8 1,8 1,9 1,10 1,11 1,12 2,12 2,13 2,14 3,14 3,15 4,15 4,14 4,13 3,13 
		3,12 3,11 3,10 3,9 3,8 3,7 4,7 4,6 4,5 3,5 	"/>
	<rect x="4" y="5" style="fill:#A6B8E8;" width="1" height="1"/>
	<polygon style="fill:#464646;" points="5,5 5,6 6,6 7,6 7,5 6,5 	"/>
	<polygon style="fill:#464646;" points="2,6 2,5 1,5 1,6 1,7 2,7 	"/>
	<polygon style="fill:#464646;" points="4,7 4,8 5,8 5,7 5,6 4,6 	"/>
	<polygon style="fill:#464646;" points="12,6 13,6 13,5 12,5 11,5 11,6 11,7 12,7 	"/>
	<rect x="12" y="6" style="fill:#D5DEF4;" width="1" height="1"/>
	<rect x="1" y="7" style="fill:#D5DEF4;" width="1" height="1"/>
	<rect x="3" y="7" style="fill:#A6B8E8;" width="1" height="1"/>
	<rect x="10" y="7" style="fill:#464646;" width="1" height="1"/>
	<rect x="11" y="7" style="fill:#D5DEF4;" width="1" height="1"/>
	<polygon style="fill:#464646;" points="3,9 3,10 3,11 3,12 4,12 4,11 4,10 4,9 4,8 3,8 	"/>
	<rect x="10" y="8" style="fill:#D5DEF4;" width="1" height="1"/>
	<polygon style="fill:#A6B8E8;" points="15,8 14,8 13,8 12,8 11,8 11,9 12,9 13,9 14,9 15,9 16,9 17,9 17,8 16,8 	"/>
	<polygon style="fill:#464646;" points="1,11 1,10 1,9 1,8 1,7 0,7 0,8 0,9 0,10 0,11 0,12 0,13 1,13 1,12 	"/>
	<polygon style="fill:#464646;" points="16,12 17,12 17,11 16,11 15,11 14,11 14,12 15,12 	"/>
	<rect x="1" y="12" style="fill:#A6B8E8;" width="1" height="1"/>
	<rect x="3" y="12" style="fill:#D5DEF4;" width="1" height="1"/>
	<polygon style="fill:#D5DEF4;" points="15,13 16,13 17,13 17,12 16,12 15,12 14,12 14,13 	"/>
	<rect x="17" y="12" style="fill:#464646;" width="1" height="1"/>
	<polygon style="fill:#464646;" points="2,13 1,13 1,14 1,15 2,15 2,14 	"/>
	<polygon style="fill:#464646;" points="4,14 5,14 5,13 5,12 4,12 4,13 	"/>
	<polygon style="fill:#464646;" points="14,13 14,12 13,12 13,13 13,14 14,14 	"/>
	<polygon style="fill:#464646;" points="16,14 16,15 17,15 17,14 17,13 16,13 	"/>
	<rect x="2" y="14" style="fill:#A6B8E8;" width="1" height="1"/>
	<rect x="4" y="14" style="fill:#D5DEF4;" width="1" height="1"/>
	<polygon style="fill:#464646;" points="6,15 7,15 7,14 6,14 5,14 5,15 	"/>
	<polygon style="fill:#464646;" points="13,15 13,14 12,14 11,14 11,15 12,15 	"/>
	<rect x="13" y="14" style="fill:#D5DEF4;" width="1" height="1"/>
	<polygon style="fill:#BBC9ED;" points="15,14 16,14 16,13 15,13 14,13 14,14 14,15 15,15 	"/>
	<rect x="15" y="14" style="fill:#A6B8E8;" width="1" height="1"/>
	<rect x="2" y="15" style="fill:#464646;" width="1" height="1"/>
	<rect x="3" y="15" style="fill:#A6B8E8;" width="1" height="1"/>
	<rect x="4" y="15" style="fill:#BBC9ED;" width="1" height="1"/>
	<polygon style="fill:#D5DEF4;" points="5,15 5,16 6,16 7,16 7,15 6,15 	"/>
	<polygon style="fill:#464646;" points="8,16 9,16 10,16 11,16 11,15 10,15 9,15 8,15 7,15 7,16 	"/>
	<polygon style="fill:#D5DEF4;" points="12,16 13,16 13,15 12,15 11,15 11,16 	"/>
	<rect x="13" y="15" style="fill:#BBC9ED;" width="1" height="1"/>
	<rect x="14" y="15" style="fill:#A6B8E8;" width="1" height="1"/>
	<rect x="15" y="15" style="fill:#464646;" width="1" height="1"/>
	<rect x="3" y="16" style="fill:#464646;" width="1" height="1"/>
	<polygon style="fill:#A6B8E8;" points="6,17 6,16 5,16 4,16 4,17 5,17 	"/>
	<rect x="6" y="16" style="fill:#BBC9ED;" width="1" height="1"/>
	<polygon style="fill:#D5DEF4;" points="8,17 9,17 10,17 11,17 11,16 10,16 9,16 8,16 7,16 7,17 	"/>
	<rect x="11" y="16" style="fill:#BBC9ED;" width="1" height="1"/>
	<polygon style="fill:#A6B8E8;" points="13,16 12,16 12,17 13,17 14,17 14,16 	"/>
	<rect x="14" y="16" style="fill:#464646;" width="1" height="1"/>
	<polygon style="fill:#464646;" points="5,17 4,17 4,18 5,18 6,18 6,17 	"/>
	<polygon style="fill:#A6B8E8;" points="11,17 10,17 9,17 8,17 7,17 6,17 6,18 7,18 8,18 9,18 10,18 11,18 12,18 12,17 	"/>
	<polygon style="fill:#464646;" points="12,17 12,18 13,18 14,18 14,17 13,17 	"/>
	<polygon style="fill:#464646;" points="10,18 9,18 8,18 7,18 6,18 6,19 7,19 8,19 9,19 10,19 11,19 12,19 12,18 11,18 	"/>
</g>
</svg>
