<?xml version="1.0" encoding="iso-8859-1"?>
<!-- Generator: Adobe Illustrator 24.2.3, SVG Export Plug-In . SVG Version: 6.00 Build 0)  -->
<svg version="1.1" id="refresh-small--flat--c" xmlns="http://www.w3.org/2000/svg" xmlns:xlink="http://www.w3.org/1999/xlink"
	 x="0px" y="0px" viewBox="0 0 16 12" style="enable-background:new 0 0 16 12;" xml:space="preserve">

<style type="text/css">
	/*
	Classes Used by IE and MSEdge with Mono Parent Color Fallback for IE
	Chrome, Chromium Edge, and Firefox use the 'fill' Attributes Over the Classes
	==============================================================================  */
	.refresh-small--flat--color1{
		fill: currentColor;
		fill: var(--color-1, currentColor);
	}
</style>
<g class="refresh-small--flat--color1" fill="var(--color-1, currentColor)" >
	<polygon points="14,7 14,6 14,5 14,4 14,3 13,3 13,2 12,2 12,1 11,1 11,0 10,0 9,0 8,0 7,0 7,1 7,2 7,3 8,3
		9,3 10,3 10,4 11,4 11,5 11,6 11,7 10,7 9,7 9,8 10,8 10,9 11,9 11,10 12,10 12,11 13,11 13,10 14,10 14,9 15,9 15,8 16,8 16,7
		15,7 	"/>
	<polygon points="7,9 6,9 6,8 5,8 5,7 5,6 5,5 6,5 7,5 7,4 6,4 6,3 5,3 5,2 4,2 4,1 3,1 3,2 2,2 2,3 1,3 1,4
		0,4 0,5 1,5 2,5 2,6 2,7 2,8 2,9 3,9 3,10 4,10 4,11 5,11 5,12 6,12 7,12 8,12 9,12 9,11 9,10 9,9 8,9 	"/>
</g>
</svg>
