<?xml version="1.0" standalone="no"?>
<!DOCTYPE svg PUBLIC "-//W3C//DTD SVG 1.1//EN" "http://www.w3.org/Graphics/SVG/1.1/DTD/svg11.dtd" >
<svg xmlns="http://www.w3.org/2000/svg" xmlns:xlink="http://www.w3.org/1999/xlink" version="1.1">
<metadata>
Created by FontForge 20180321 at Fri Apr 23 18:09:38 2021
 By Tom Keen
</metadata>
<defs>
<font id="mc_icons" horiz-adv-x="512" >
  <font-face 
    font-family="mc_icons"
    font-weight="400"
    font-stretch="normal"
    units-per-em="512"
    panose-1="2 0 5 9 0 0 0 0 0 0"
    ascent="448"
    descent="-64"
    bbox="0 -51 512 435.382"
    underline-thickness="25"
    underline-position="-76"
    unicode-range="U+F101-F13D"
  />
<missing-glyph 
d="M17 0v341h136v-341h-136zM34 17h102v307h-102v-307z" />
    <glyph glyph-name=".notdef" 
d="M17 0v341h136v-341h-136zM34 17h102v307h-102v-307z" />
    <glyph glyph-name=".null" horiz-adv-x="0" 
 />
    <glyph glyph-name="nonmarkingreturn" 
 />
    <glyph glyph-name="agent" unicode="&#xf101;" 
d="M243 179h-25h-26v26v25v26v26v25h26h25h26h25h26v-25v-26v-26v-25v-26h-26h-25h-26zM346 154h25v-26v-26v-25h-25h-26h-26h-25h-26h-25h-26h-26h-25v25v26v26h25h26h26h25h26h25h26h26z" />
    <glyph glyph-name="arrow-down" unicode="&#xf102;" 
d="M256 435l214 -121v-244l-214 -121l-214 121v244zM257 283h-18v-146l-70 68v-28l79 -80l80 80v27l-71 -68v147z" />
    <glyph glyph-name="arrow-left" unicode="&#xf103;" 
d="M256 435l214 -121v-244l-214 -121l-214 121v244zM340 183l2 19h-147l67 71h-26l-80 -81l78 -79h27l-68 70h147z" />
    <glyph glyph-name="arrow-right-frameless" unicode="&#xf104;" 
d="M275 300l103 -108l-103 -108h-33l88 96h-196v24h196l-88 96h33z" />
    <glyph glyph-name="arrow-right" unicode="&#xf105;" 
d="M256 435l214 -121v-244l-214 -121l-214 121v244zM275 113l81 79l-80 81h-24l68 -71h-147v-19h146l-68 -70h24z" />
    <glyph glyph-name="arrow-up" unicode="&#xf106;" 
d="M256 435l214 -121v-244l-214 -121l-214 121v244zM239 97v2h20v147l70 -68v27l-81 79l-79 -79v-27l70 68v-149z" />
    <glyph glyph-name="article" unicode="&#xf107;" 
d="M346 320v26h25v-26h-25zM371 294v26h26v-26h-26zM346 269h-26v-26h-26v26h-25v25h25h26h26v-25zM397 294h25v-25v-26v-25v-26v-26v-25v-26v-25v-26h-25h-26h-25v-26v-25h-26h-26h-25h-26h-25h-26h-26h-25h-26h-25v25v26v26v25v26v25v26v26v25v26v25v26h25h26h25v26v25h26
h26h25h26h25h26h26v-25h-26h-26h-25h-26h-25h-26v-26h26h25h26v-26h-26h-25h-26h-26h-25h-26v-25v-26v-25v-26v-26v-25v-26v-25v-26v-26h26h25h26h26h25h26h25h26v26v26v25v26v25v26v26v25h26h25v-25h-25v-26h25v-26h-25v-25h25v-26h-25v-25h25h26v25v26v25v26v26v25v26v25z
M192 218h-26h-25v25h25h26h26h25h26v-25h-26h-25h-26zM243 192h26h25v-26h-25h-26h-25h-26h-26h-25v26h25h26h26h25zM243 141h26h25v-26h-25h-26h-25h-26h-26h-25v26h25h26h26h25zM243 90h26h25v-26h-25h-26h-25h-26h-26h-25v26h25h26h26h25z" />
    <glyph glyph-name="attachments" unicode="&#xf108;" 
d="M155 -13q-42 0 -73 31t-31 73q0 18 9 40q11 23 22 34l211 210q10 10 24 15q18 7 27 7q29 0 53 -22q22 -22 22 -52q0 -12 -7 -29q-5 -14 -15 -24l-209 -209q-5 -5 -14 -9q-10 -3 -17 -3q-17 0 -30 12.5t-13 30.5q0 7 4 17q3 8 9 14l152 152q3 3 6 3q2 0 9 -3q4 -1 4 -7
q0 -4 -2 -9l-151 -154q-5 -5 -5 -13t5 -13t12.5 -5t12.5 5l209 209q8 8 11.5 19.5t3.5 17.5q0 7 -4 17t-10 16t-16 11q-10 3 -20 3q-7 0 -19 -3q-9 -4 -17 -11l-209 -211q-8 -7 -17 -25q-6 -15 -6 -31q0 -12 6 -30q7 -16 17 -25q7 -8 25 -17q13 -6 31 -6q12 0 29 6
q16 7 26 17l210 207q4 4 9 4t9 -4t4 -9t-4 -9l-210 -207q-12 -12 -33 -22q-20 -9 -40 -9z" />
    <glyph glyph-name="block-side" unicode="&#xf109;" 
d="M433 435l66 -135v-351h-486v351l66 135h354zM468 -20v302h-424v-302h424z" />
    <glyph glyph-name="block-stack-side" unicode="&#xf10a;" 
d="M466 232l33 -75v-177h-242h-2h-242v177l36 76h79v97l37 74h175l36 -74v-98h90zM229 10l3 135h-183v-135h180zM165 183h183v134h-183v-134zM471 10q0 135 3 135h-183v-135h180z" />
    <glyph glyph-name="blocky-heart" unicode="&#xf10b;" 
d="M256 5l-243 243l130 131l113 -113l113 113l130 -131z" />
    <glyph glyph-name="book" unicode="&#xf10c;" 
d="M431 399h67v-450h-461q-9 0 -16 6t-7 17v74v318v46q0 10 7.5 17.5t18.5 7.5h391v-36zM81 335v-35h291v35h-291zM81 251v-36h291v36h-291zM81 166v-35h291v35h-291zM467 -15v379h-36v-344h-363q-8 0 -13 -5t-5 -12q0 -5 2.5 -9.5t6.5 -6.5t9 -2h399z" />
    <glyph glyph-name="check" unicode="&#xf10d;" 
d="M422 294h26v-25v-26h-26v-25h-25v-26h-26v-26h-25v-25h-26v-26h-26v-25h-25v-26h-26v-26h-25v-25h-26v25h-26v26h-25v26h-26v25h-25v26h-26v25h26v26h25v26h26v-26h25v-26h26v-25h26v25h25v26h26v26h25v25h26v26h26v25h25v26h26h25v-26z" />
    <glyph glyph-name="chevron-down" unicode="&#xf10e;" 
d="M419 248l-157 -155q-2 -3 -6 -3q-3 0 -6 3l-157 155q-3 4 -3 8t3 6l29 29q2 3 6 3q3 0 6 -3l121 -121l120 121q4 3 6.5 3t6.5 -3l28 -29q4 -3 4 -6q3 -1 -1 -8z" />
    <glyph glyph-name="close" unicode="&#xf10f;" 
d="M422 311l-122 -119l121 -120l-46 -46l-119 122l-123 -121l-43 46l120 119l-119 123l46 43l119 -120l120 119z" />
    <glyph glyph-name="comments" unicode="&#xf110;" 
d="M154 166h-26h-26v26h26h26h25h26h153v-26h-153h-26h-25zM205 115h25h180v-25h-180h-25h-26h-25h-26h-26v25h26h26h25h26zM51 115v-25v-26h-25v26v25v26v25v128h25v-128v-25v-26zM230 38h26h179v-25h-179h-26h-25h-26h-25v25h25h26h25zM128 -13v26h26v-26h-26zM77 -13h25
h26v-25h-26h-25h-26v25v26h26v-26zM77 13v25h25v-25h-25zM51 294v26h26v-26h-26zM435 38v26h26v-26h-26zM51 38v26h26v-26h-26zM77 320v24h358v-24h-358zM435 294v26h26v-26h-26zM461 294h25v-128v-25v-26v-25v-26h-25v26v25v26v25v128zM154 243h-26h-26v26h26h26h25h26h179
v-26h-179h-26h-25z" />
    <glyph glyph-name="facebook-frameless" unicode="&#xf111;" 
d="M211 255q0 9 -2 46q0 36 18 53t58 17h52v-63h-37q-11 0 -14 -4.5t-3 -15.5v-35h56l-5 -60h-51v-180h-72v182h-37v60h37z" />
    <glyph glyph-name="facebook" unicode="&#xf112;" 
d="M255 435l213 -121v-244l-213 -121l-213 121v244zM300 264l1 28q-10 1 -23 1q-23 0 -34.5 -11.5t-11.5 -29.5v-27h-23v-30h21v-84h35v84h32l3 30h-34v23q0 16 14 16h20z" />
    <glyph glyph-name="gear" unicode="&#xf113;" 
d="M448 230h38v-38v-38h-38h-38v-39h38v-38v-39h-38v-38h-39h-38v38h-39v-38v-38h-38h-38v38v38h-39v-38h-38h-39v38h-38v39v38h38v39h-38h-38v38v38h38h38v39h-38v38v39h38v38h39h38v-38h39v38v38h38h38v-38v-38h39v38h38h39v-38h38v-39v-38h-38v-39h38zM256 115h38v39h39
v38v38h-39v39h-38h-38v-39h-39v-38v-38h39v-39h38z" />
    <glyph glyph-name="grad-cap" unicode="&#xf114;" 
d="M18 305l235 130h6l233 -130q5 -4 5 -16t-5 -18l-233 -130h-6l-233 130q-5 2 -5.5 16t3.5 18zM259 92l7 5l136 77v-141q0 -19 -44.5 -51.5t-96.5 -32.5t-96.5 31t-44.5 53v141l136 -77zM69 131h-25q0 84 69.5 143t170.5 59v-46q-92 0 -153.5 -48t-61.5 -108zM38 -38
l18 169l21 -169h-39zM26 110q0 13 9 22t21.5 9t21.5 -9t9 -22t-9 -22t-21.5 -9t-21.5 9t-9 22z" />
    <glyph glyph-name="info" unicode="&#xf115;" 
d="M218 410h-26h-26v25h26h26h25h26h25h26h26v-25h-26h-26h-25h-26h-25zM141 384v26h25v-26h-25zM346 384v26h25v-26h-25zM115 358v26h26v-26h-26zM371 358v26h26v-26h-26zM90 333v25h25v-25h-25zM294 384v-26v-25v-26h-25h-26h-25v26v25v26h25h26h25zM269 333v25h-26v-25
h26zM397 333v25h25v-25h-25zM422 333h26v-26v-25v-26v-26v-25v-26v-25h-26v25v26v25v26v26v25v26zM90 205v-26v-25h-26v25v26v25v26v26v25v26h26v-26v-25v-26v-26v-25zM90 128v26h25v-26h-25zM243 282h26h25v-26v-26v-25v-26v-25v-26v-26h-25h-26h-25v26v26v25v26v25v26v26
h25zM269 230v26h-26v-26v-25v-26v-25v-26h26v26v25v26v25zM397 128v26h25v-26h-25zM115 102v26h26v-26h-26zM371 102v26h26v-26h-26zM141 77v25h25v-25h-25zM346 77v25h25v-25h-25zM320 51v26h26v-26v-25v-26v-26h-26v-25h-26h-25h-26h-25h-26v25h-26v26v26v25v26h26v-26h26
h25h26h25h26z" />
    <glyph glyph-name="linkedin" unicode="&#xf116;" 
d="M255 435l213 -121v-244l-213 -121l-213 121v244zM216 119v111q0 3 -2 3h-35q-2 0 -2 -3v-111q0 -3 2 -3h35q2 0 2 3zM197 242q9 0 16 7t7 16q0 7 -3 12t-8 8t-12 3q-9 0 -16 -6.5t-7 -16.5q0 -6 3.5 -11.5t8.5 -8.5t11 -3zM348 122v61q-1 16 -4 25.5t-13.5 19t-28.5 9.5
t-31 -13v8q0 2 -2 2h-31q-2 0 -2 -2v-112q0 -2 2 -2h35q2 0 2 2v55q0 14 4 20t14 6q15 0 15 -26v-53q0 -3 3 -3h35q2 0 2 3z" />
    <glyph glyph-name="lock" unicode="&#xf117;" 
d="M397 166h25v-25v-26v-25v-128h-179h-25h-26h-26h-25h-26h-25v128v25v26v25h25v26v128h26v26h25v25h26h26h128v-25h25v-26h26v-128v-26zM269 90v25h-26v-25v-77h26v77zM346 166v26v102h-26v26h-102h-26v-26h-26v-102v-26h26h154z" />
    <glyph glyph-name="menu" unicode="&#xf118;" 
d="M477 323h-442q-9 0 -15.5 6t-6.5 17q0 9 6.5 15t15.5 6h442q14 0 20 -12q2 -6 2 -12q0 -8 -6 -13q-6 -7 -16 -7zM477 170h-442q-9 0 -15.5 6.5t-6.5 15.5t6.5 15.5t15.5 6.5h441q9 0 15.5 -6.5t6.5 -15.5t-6 -15q-4 -7 -15 -7zM477 17h-442q-9 0 -15.5 6t-6.5 15
t6.5 15.5t15.5 6.5h441q9 0 15.5 -6.5t6.5 -15.5t-6 -15q-5 -6 -15 -6z" />
    <glyph glyph-name="notification_FRAME" unicode="&#xf119;" 
d="M256 -51l-214 121v244l214 121l214 -121v-244zM72 88l184 -105l184 105v208l-184 105l-184 -105v-208z" />
    <glyph glyph-name="notification-alert" unicode="&#xf11a;" 
d="M256 435l214 -121v-244l-214 -121l-214 121v244zM440 88v208l-184 105l-184 -105v-208l184 -105zM218 154v179h76v-179h-76zM218 38v77h76v-77h-76z" />
    <glyph glyph-name="notification-error" unicode="&#xf11b;" 
d="M256 435l214 -121v-244l-214 -121l-214 121v244zM361 340l-105 61l-104 -58l104 -105zM72 297v-209l21 -11l117 115l-114 119zM150 44l106 -61l104 59l-104 106zM440 87v207l-21 13l-119 -115l117 -119z" />
    <glyph glyph-name="notification-info" unicode="&#xf11c;" 
d="M256 -51l-214 121v244l214 121l214 -121v-244zM72 88l184 -105l184 105v208l-184 105l-184 -105v-208zM279 291v-16v-15v-16h-15h-16h-15v16v15v16h15h16h15zM248 215h16h15v-15v-16v-15v-15v-16v-15v-41h-15h-16h-15v41v15v16v15v15v16v15h15z" />
    <glyph glyph-name="notification-success" unicode="&#xf11d;" 
d="M256 -51l-214 121v244l214 121l214 -121v-244zM72 88l184 -105l184 105v208l-184 105l-184 -105v-208zM384 282h26v-26v-26h-26v-25h-26v-26h-25v-25h-26v-26h-25v-26h-26v-25h-26v-26h-25v26h-26v25h-25v26h-26v26h-26v25v26h26v25h26h25v-25h26v-26h25v26h26v25h26v26
h25v26h26v25h25h26v-25z" />
    <glyph glyph-name="play" unicode="&#xf11e;" 
d="M178 310v25h26v-25h26v-27h26v-26h26v-25h26v-27h26v-26h-26v-27h-26v-25h-26v-26h-26v-27h-26v-25h-26v25v27v26v25v27v26v27v25v26v27z" />
    <glyph glyph-name="plus" unicode="&#xf11f;" 
d="M486 269v-154h-153v-153h-154v153h-153v154h153v153h154v-153h153z" />
    <glyph glyph-name="post" unicode="&#xf120;" 
d="M448 384h26v-26v-25v-26v-25v-26v-26v-25v-26v-25v-26v-26v-25v-26v-25v-26h-26h-26h-25h-26h-25h-26h-26h-25h-26h-25h-26h-26h-25h-26h-25v26h-26v25h26v26v25v26v26v25v26v25v26v26v25h-26v-25v-26v-26v-25v-26v-25v-26v-26v-25v-26h-26v26v25v26v26v25v26v25v26v26
v25v26h26h26v25v26h25h26h25h26h26h25h26h25h26h26h25h26h25h26zM448 333v25h-26h-25h-26h-25h-26h-26h-25h-26h-25h-26h-26h-25h-26v-25v-26v-25v-26v-26v-25v-26v-25v-26v-26v-25v-26v-25h26h25h26h26h25h26h25h26h26h25h26h25h26v25v26v25v26v26v25v26v25v26v26v25v26z
M371 333h26h25v-26h-25h-26h-25h-26h-26v26h26h26h25zM371 282h26h25v-26h-25h-26h-25h-26h-26v26h26h26h25zM192 205h-26h-25v25v26v26v25v26h25h26h26h25h26v-26v-25v-26v-26v-25h-26h-25h-26zM166 256v-26h26h26h25v26v26v25h-25h-26h-26v-25v-26zM371 230h26h25v-25h-25
h-26h-25h-26h-26v25h26h26h25zM371 179h26h25v-25h-25h-26h-25h-26h-26h-25h-26h-25h-26h-26h-25v25h25h26h26h25h26h25h26h26h25zM218 128h25h26v-26h-26h-25h-26h-26h-25v26h25h26h26zM371 128h26h25v-26h-25h-26h-25h-26h-26v26h26h26h25zM218 77h25h26v-26h-26h-25h-26
h-26h-25v26h25h26h26zM371 77h26h25v-26h-25h-26h-25h-26h-26v26h26h26h25z" />
    <glyph glyph-name="redo" unicode="&#xf121;" 
d="M128 115h-78v26v25v26v26h26v25h26v26h26v27h26v25h25h26h25h26h26h25v-25h26v-27h25v-26h27v-25h26v-26v-26h25h26v-25h-26v-26h-25v-25h-26v-27h-27v27h-25v25h-26v26h-25v25h25h26v26h-26v26h-25v25h-26h-26h-25h-26v-25h-25v-26h-26v-26v-25v-26z" />
    <glyph glyph-name="refresh" unicode="&#xf122;" 
d="M462 141h26v-26h-26v-25h-26v-26h-25v-27h-27v27h-26v26h-25v25h-26v26h26h25v25v26v26v25h-25v26h-26v25h-25h-26h-26h-25v26v27v25h25h26h26h25h26v-25h25v-27h26v-26h27v-25h25v-26v-25v-26v-26v-25h26zM256 90h26h25v-26v-27v-25h-25h-26h-26h-25h-26v25h-25v27h-26
v26h-27v25h-25v26v25v26v26v25h-26h-26v26h26v25h26v26h25v27h27v-27h26v-26h25v-25h26v-26h-26h-25v-25v-26v-26v-25h25v-26h26v-25h25h26z" />
    <glyph glyph-name="search" unicode="&#xf123;" 
d="M294 269v-26h-25h-26v26h-25v25v26h25v-26h26v-25h25zM422 90h26v-26v-26v-25h-26h-25h-26v25v26h-25v26h-26v25h-26h-25h-26h-25h-26h-26h-25v26h-26v25h-25v26v26v25v26v25v26h25v26h26v25h25h26h26h25h26h25v-25h26v-26h26v-26v-25v-26v-25v-26v-26v-25h25v-26h26v-25
h25zM269 166h25v26h26v26v25v26v25h-26v26h-25v26h-26h-25h-26h-26v-26h-25v-26h-26v-25v-26v-25v-26h26v-26h25v-25h26h26h25h26v25z" />
    <glyph glyph-name="shears" unicode="&#xf124;" 
d="M384 269h27v-26v-25v-26h-27v-26h-26v-25h-25v-26h-26v-25h-25h-26v-26h-26h-25h-26v26v25h26v26h25h26v25h26v26h25v26h26v25h25v26h26zM179 115h-25h-26v26v25v26h26v26v25h25v26h26v25h25v26h26v27h26h25h26v-27v-26h-26v-25h-25v-26h-26v-25h-26v-26h-25v-26v-25h-26
v-26zM128 115v-25v-26h-27v26v25h27zM128 64h26h25v-27h-25h-26v27z" />
    <glyph glyph-name="star" unicode="&#xf125;" 
d="M435 282h26v-26v-26h-26v-25h-25v-26h-26v-25h-26v-26v-26h26v-25v-26h26v-25v-26v-26v-25h-26h-26h-25v25h-26v26h-25v26h-26v25h-26v-25h-25v-26h-26v-26h-25v-25h-26h-26h-25v25v26v26v25h25v26v25h26v26v26h-26v25h-25v26h-26v25h-25v26v26h25h26h25h26h26h25v25v26
h26v25v26v26h25v25h26v-25h26v-26v-26v-25h25v-26v-25h26h25h26h26h25z" />
    <glyph glyph-name="stop" unicode="&#xf126;" 
d="M105 36v312h302v-312h-302z" />
    <glyph glyph-name="tools-frameless" unicode="&#xf127;" 
d="M397 307h25v-25v-26h-25v-26h-26h-25h-26v-25h-26v-26h26v-25h26v-26h25v-26h26v-25h25v-26v-25h-25h-26v25h-25v26h-26v25h-26v26h-25v26h-26v-26h-25v-26h-26v-25h-26v-26h-25v-25h-26h-25v25v26h25v25h26v26h25v26h26v25h26v26h-26v25h-26h-25h-26v26h-25v26v25h25
v-25h26h25v25v26h-25v25h25h26v-25h26v-26v-25v-26h25v-26h26v26h25v26v25v26h26v25h26h25v-25h-25v-26v-25h25h26v25z" />
    <glyph glyph-name="twitch-frameless" unicode="&#xf128;" 
d="M123 358h287v-201q-2 0 -23 -21.5t-42 -42.5l-20 -21h-63l-39 -46h-40v46h-81v233zM379 165v163h-233v-209h65v-46l5 5l40 40h76zM228 187v86h24v-86h-24zM303 187v86h25v-86h-25z" />
    <glyph glyph-name="twitch" unicode="&#xf129;" 
d="M228 116v30h-41v133h148v-104l-30 -30h-49l-26 -26q-1 -1 -2 -3zM287 243v-55h15v55h-15zM238 243v-55h15v55h-15zM255 435l213 -121v-244l-213 -121l-213 121v244zM356 169q0 129 -1 129h-182l-14 -34v-150h51v-30h26l26 30h40q53 54 54 55z" />
    <glyph glyph-name="twitter-frameless" unicode="&#xf12a;" 
d="M422 293q-9 -20 -33 -32q2 -50 -19.5 -96t-68 -76.5t-106.5 -30.5t-105 29q56 -8 101 28q-22 0 -39 13t-24 35q6 -2 29 1q-16 3 -28.5 13t-19 24.5t-5.5 30.5q15 -9 29 -9q-23 15 -28.5 42t8.5 49q54 -66 139 -72q-8 32 13 58t54 26q30 0 51 -20q19 3 43 15
q-6 -24 -29 -38q17 1 38 10z" />
    <glyph glyph-name="twitter" unicode="&#xf12b;" 
d="M255 435l213 -121v-244l-213 -121l-213 121v244zM328 227q2 2 9 8.5t11 8.5q-6 -3 -22 -6q13 9 17 22q-15 -8 -24 -9q-13 13 -27 13q-16 0 -27.5 -11t-11.5 -28q0 -1 1 -4t1 -5q-50 2 -78 39q-5 -7 -5 -18q0 -21 16 -31q-9 0 -15 6q0 -14 9 -24.5t22 -12.5q-4 -1 -11 -1
h-7q2 -11 12 -18.5t22 -7.5q-24 -17 -47 -17h-9q25 -16 57 -16q48 0 77.5 33t29.5 73v6z" />
    <glyph glyph-name="undo" unicode="&#xf12c;" 
d="M384 115v26v25v26h-26v26h-25v25h-26h-25h-26h-26v-25h-25v-26h-26v-26h26h25v-25h-25v-26h-26v-25h-25v-27h-27v27h-26v25h-25v26h-26v25h26h25v26v26h26v25h27v26h25v27h26v25h25h26h26h25h26h25v-25h26v-27h26v-26h26v-25h26v-26v-26v-25v-26h-78z" />
    <glyph glyph-name="vote" unicode="&#xf12d;" 
d="M148 192h11h7v-8v-10v-8v-7v-11v-7v-8v-10v-8v-7v-11v-7v-8v-10v-8v-8v-10v-8v-7v-11v-7h-7h-11h-7h-8h-10h-8v7v11v7v8v10v8v8v10v8v7v11v7v8v10v8v7v11v7v8v10v8h8h10h8h7zM389 192h8v-8v-10v-8v-7v-11v-7v-8v-10v-8v-7v-11v-7v-8v-10v-8v-8v-10v-8h-8h-10h-8v-7v-11
v-7h-7h-11h-7h-8h-10h-8h-8h-10h-8h-7h-11h-7h-8h-10h-8h-7h-11h-7h-8h-10h-8v7v11v7v8v10v8v8v10v8v7v11v7v8v10v8v7v11v7v8v10v8h8h10h8v8v10v8h7h11h7v7v11v7h8h10h8v8v10v8h7h11h7v7v11v7h8h10h8h8h10h8v-7v-11v-7v-8v-10v-8v-7v-11v-7h-8h-10h-8v-8v-10v-8h8h10h8h7h11
h7h8h10z" />
    <glyph glyph-name="youtube_play_frameless" unicode="&#xf12e;" 
d="M422 192q0 -88 -20.5 -103t-145.5 -15t-145.5 15t-20.5 103t20.5 103t145.5 15q125 1 145.5 -14t20.5 -104zM319 192l-105 64v-124z" />
    <glyph glyph-name="youtube-frameless" unicode="&#xf12f;" 
d="M140 384h21l17 -59l14 59h24l-25 -87v-60h-22v60zM212 262v55q0 13 9 21t22 8q12 0 20 -8t8 -21v-55q0 -12 -7.5 -20t-20.5 -8q-31 0 -31 28zM234 315v-50q0 -10 8 -10t8 10v50q0 10 -8 10t-8 -10zM328 346h23v-110h-21v11q-14 -14 -24 -14q-14 0 -14 20v93h20v-86
q0 -8 4 -8q2 0 4.5 2t4.5 5t3 3v84zM297 122q3 -3 3 -8v-55q0 -7 -3 -8h-10l-4 4v64q2 3 4 4q9 0 10 -1zM362 123q6 0 10 -12v-10h-17v10v7t2 3.5t5 1.5zM420 47q0 -18 -14 -32t-32 -14h-238q-18 -1 -32 13.5t-14 32.5v117q0 18 13.5 32t32.5 14h240q12 0 23 -6.5t17 -17
t6 -22.5v-117h-2zM168 156h21v21h-67v-21h21v-121h23v121h2zM244 140h-17v-79q-8 -7 -12 -7t-4 7v81h-19v-87q0 -15 8.5 -18t15.5 4q9 6 12 10v-13h18zM320 115q0 26 -18 26q-8 0 -18 -10v44h-20v-140h20v7q5 -7 18 -7q8 0 13 6t5 15v59zM390 111q0 31 -28 31t-28 -31v-46
q0 -14 7.5 -23t20.5 -9q28 0 28 32v8h-20v-8q0 -14 -7.5 -14t-7.5 14v21h35v25z" />
    <glyph glyph-name="youtube" unicode="&#xf130;" 
d="M230 154v69l61 -36zM255 435l213 -121v-244l-213 -121l-213 121v244zM253.5 124q68.5 0 79.5 8t11 56q0 49 -11 57t-80 7q-68 0 -79 -8t-11 -56t11 -56t79.5 -8z" />
    <glyph glyph-name="zoom_in" unicode="&#xf131;" 
d="M422 90h26v-26v-26v-25h-26h-25h-26v25v26h-25v26h-26v25h-26h-25h-26h-25h-26h-26h-25v26h-26v25h-25v26v26v25v26v25v26h25v26h26v25h25h26h26h25h26h25v-25h26v-26h26v-26v-25v-26v-25v-26v-26v-25h25v-26h26v-25h25zM269 166h25v26h26v26v25v26v25h-26v26h-25v26h-26
h-25h-26h-26v-26h-25v-26h-26v-25v-26v-25v-26h26v-26h25v-25h26h26h25h26v25zM256 256v-26h-26v-25h-25v25h-26v26h26v26h25v-26h26z" />
    <glyph glyph-name="zoom_out" unicode="&#xf132;" 
d="M422 90h26v-26v-26v-25h-26h-25h-26v25v26h-25v26h-26v25h-26h-25h-26h-25h-26h-26h-25v26h-26v25h-25v26v26v25v26v25v26h25v26h26v25h25h26h26h25h26h25v-25h26v-26h26v-26v-25v-26v-25v-26v-26v-25h25v-26h26v-25h25zM269 166h25v26h26v26v25v26v25h-26v26h-25v26h-26
h-25h-26h-26v-26h-25v-26h-26v-25v-26v-25v-26h26v-26h25v-25h26h26h25h26v25zM230 230h-25h-26v26h26h25h26v-26h-26z" />
    <glyph glyph-name="pinterest-frameless" unicode="&#xf133;" 
d="M118 243q0 25 7 44q7 18 22 36q13 14 33 26q18 11 40 17q21 5 45 5q33 0 63 -14t47 -42q18 -25 18 -62q0 -19 -4 -41q-4 -21 -13 -38q-10 -20 -21 -32q-15 -15 -31 -22q-19 -7 -41 -7q-12 0 -30 6q-14 7 -20 19q-1 -2 -3 -10t-3 -14l-6 -21q-1 -3 -3 -15q-1 -3 -2.5 -6.5
t-2 -5.5t-1.5 -3q-3 -8 -5.5 -14.5t-10.5 -16.5l-13 -19h-4l-2 2q-4 35 -4 41q0 23 5 45q3 19 14 62q11 42 12 43q-7 11 -7 36q0 18 11.5 33.5t28.5 15.5q13 0 20 -9q8 -10 8 -22q0 -16 -9 -41t-9 -40q0 -13 10 -23q9 -9 23 -9t22 5q11 7 17 14q8 10 11 21q6 12 8 24
q4 14 4 25q1 7 1 21q0 39 -23 58q-22 20 -61 20q-44 0 -72 -28q-30 -29 -30 -70q0 -8 3 -18q1 -7 6 -14q2 -2 4 -5.5t3 -4.5q2 -6 2 -7q0 -6 -3 -15q-5 -10 -8 -10q-1 0 -4 1q-13 5 -19 13q-10 12 -13 20q-5 15 -6 23q-4 12 -4 23z" />
    <glyph glyph-name="pinterest" unicode="&#xf134;" 
d="M256 435l214 -121v-244l-214 -121l-212 121v244zM184 228q0 -3 4 -17q1 -2 2 -5.5t2 -5.5q2 -6 6.5 -10.5t10.5 -6.5h1q2 0 4 5q1 3 1 8q0 2 -1 4q0 2 -3 5q0 1 -1 3.5t-1 3.5q-2 3 -2 9q0 24 14 36q15 14 36 14q19 0 31 -10q12 -11 12 -29q0 -1 -0.5 -3l-1 -4t-0.5 -4
q0 -1 -1 -5t-1 -6l-4 -12q-1 -1 -2 -3l-2 -4t-3 -3q-4 -6 -9 -8q-7 -2 -11 -2t-12 5q-5 3 -5 12q0 8 5.5 20t5.5 21q0 7 -4 11t-11 4q-8 0 -14 -8q-5 -7 -5 -16q0 -11 4 -18q0 -5 -5 -22q-6 -17 -8 -31q-2 -18 -2 -23q0 -9 1 -20l1 -2h2q3 4 6 9l2.5 5t2.5 4q3 5 4 7l0.5 1
t1 3t1.5 3l2 8q0 1 1 5l2 5q0 3 0.5 6t1 4.5t0.5 2.5q2 -5 10 -9q6 -4 15 -4q10 0 20 4t15 12q8 8 12 16q5 13 6 19q3 13 3 21q0 18 -9 31t-24 20q-16 8 -32 8q-7 0 -22 -3q-13 -4 -21 -9q-6 -2 -16 -12q-8 -8 -12 -18t-4 -22z" />
    <glyph glyph-name="hyperlink-external" unicode="&#xf135;" 
d="M357 170h4q1 -1 1 -4v-53q0 -20 -14 -34t-33 -14h-138q-20 0 -34 14t-14 34v138q0 19 14 33t34 14h52q3 0 4 -1t1 -4v-10q0 -3 -1 -4t-4 -1h-52q-12 0 -19.5 -8t-7.5 -19v-140q0 -11 7.5 -19t19.5 -8h138q11 0 19 8t8 19v54q0 3 1 4t4 1h10zM380 317q4 -4 3 -7v-86
q0 -5 -3 -8q-5 -2 -8 -2q-5 0 -7 2l-30 30l-83 -83q-1 -2 -3.5 -2t-4.5 2l-19 19q-1 1 -1 3.5t1 3.5l83 84l-29 29q-3 5 -3 8q0 5 3 7q5 3 8 3h85q6 0 8 -3z" />
    <glyph glyph-name="hyperlink-scrolling" unicode="&#xf136;" 
d="M256 333l78 -90h-157zM256 51l-79 90h158zM234 192q0 9 6.5 15.5t15.5 6.5t15.5 -6.5t6.5 -15.5t-6.5 -15.5t-15.5 -6.5t-15.5 6.5t-6.5 15.5z" />
    <glyph glyph-name="arrow-down-hex" unicode="&#xf137;" 
d="M384 412l128 -220l-128 -220h-256l-128 220l128 220h256zM335 179v26l-70 -68v147h-18v-144l-70 67v-28l79 -79z" />
    <glyph glyph-name="arrow-left-hex" unicode="&#xf138;" 
d="M384 412l128 -220l-128 -220h-256l-128 220l128 220h256zM348 182v20h-147l68 71h-26l-79 -81l78 -81h27l-68 71h147z" />
    <glyph glyph-name="arrow-right-hex" unicode="&#xf139;" 
d="M384 412l128 -220l-128 -220h-256l-128 220l128 220h256zM269 113l80 79l-79 81h-24l68 -71h-148v-19h146l-68 -70h25z" />
    <glyph glyph-name="arrow-up-hex" unicode="&#xf13a;" 
d="M384 412l128 -220l-128 -220h-256l-128 220l128 220h256zM335 179h2v27l-81 79l-79 -79v-27l69 68v-147h19v147z" />
    <glyph glyph-name="hex" unicode="&#xf13b;" 
d="M384 412l128 -220l-128 -220h-256l-128 220l128 220h256zM384 412l128 -220l-128 -220h-256l-128 220l128 220h256zM269 113l80 79l-79 81h-24l68 -71h-148v-19h146l-68 -70h25z" />
    <glyph glyph-name="tools" unicode="&#xf13c;" 
d="M434 279l63 72q12 -59 -30 -101q-20 -22 -49 -29.5t-58 2.5l-254 -258q-13 -15 -33 -15q-19 2 -32 15q-14 15 -14 35t14 33l250 254q-12 28 -6 61q10 44 48 69t82 16l-67 -67l19 -68zM97 -3q0 8 -5.5 13.5t-12.5 4.5q-7 0 -13 -5t-6 -13q0 -5 2.5 -9t6.5 -6t9 -2t9.5 2
t7 6t2.5 9zM93 416l143 -145l-67 -67l-142 144q-15 15 -15 35t15 33q13 14 33 14t33 -14zM169 236l10 10l-135 138l-11 -10zM60 399l137 -137l10 11l-137 137zM384 -5l-19 34l-81 85l50 46l76 -81l33 -25l45 -78l-22 -27z" />
    <glyph glyph-name="iso-block" unicode="&#xf13d;" 
d="M256 -51l-214 121v244l214 121l214 -121v-244z" />
  </font>
</defs>
</svg>
