<?xml version="1.0" encoding="utf-8"?>
<!-- Generator: Adobe Illustrator 24.1.3, SVG Export Plug-In . SVG Version: 6.00 Build 0)  -->
<svg version="1.1" id="persona_group-chest--c" xmlns="http://www.w3.org/2000/svg" xmlns:xlink="http://www.w3.org/1999/xlink"
	 x="0px" y="0px" viewBox="0 0 200 200" style="enable-background:new 0 0 200 200;" xml:space="preserve">

<style type="text/css">
	/*
	Classes Used by IE and MSEdge with Mono Parent Color Fallback for IE
	Chrome, Chromium Edge, and Firefox use the 'fill' Attributes Over the Classes
	==============================================================================  */
	.persona_group-chest--color1{
		fill: currentColor;
		fill: var(--color-1, currentColor);
	}
	.persona_group-chest-leftrim-opacity{ opacity:0.13; }


	.persona_group-chest-leftrimsplits-opacity{ opacity: 0.27; enable-background: new; }
	.persona_group-chest-lock-opacity{ opacity: 0.4; enable-background: new; }
	.persona_group-chest-rightrim-opacity{ opacity: 0.13; enable-background: new; }
	.persona_group-chest-toprim-opacity{ opacity: 0.2; enable-background: new; }
</style>
<style type="text/css">
	.st2{opacity:0.27;enable-background:new    ;}
</style>

<g id="persona_group-chest" class="persona_group-chest--color1" fill="var(--color-1, currentColor)">
	<g id="FacingRims">
		<path id="RightRim" class="persona_group-chest-rightrim-opacity" opacity="0.13" d="M96.3,196.2c-1.4-0.9-2.3-2.5-2.3-4.2V86.9c0-1.9,1.1-3.5,2.6-4.4L175.8,43
			c1.4-0.9,3.3-0.7,4.8,0.2c1.4,0.9,2.3,2.5,2.3,4.2v105.1c0,1.9-1.1,3.5-2.6,4.4l-79,39.5c-0.7,0.4-1.6,0.5-2.3,0.5
			C98.1,196.9,97,196.7,96.3,196.2z M173,55.3L103.9,90v93.8l69.1-34.6V55.3z"/>
		<path id="TopRim" class="persona_group-chest-toprim-opacity" opacity="0.2" d="M96.6,91.3l-79-39.5C16,50.9,15,49.3,15,47.4s1.1-3.5,2.6-4.4l79-39.5c1.4-0.7,3-0.7,4.4,0
			L180.2,43c1.6,0.9,2.6,2.5,2.6,4.4s-1.1,3.5-2.6,4.4l-79,39.5c-0.7,0.4-1.6,0.5-2.3,0.5C98.1,91.8,97.4,91.6,96.6,91.3z M98.9,13.4
			l-68,34l68,34l68-34L98.9,13.4z"/>
		<path id="RightSplit" class="persona_group-chest-leftrimsplits-opacity" opacity="0.27" d="M175.3,84l-22.6,10.9v10.8l22.6-10.9c1.4-0.7,2.6-2.5,2.6-4.1v-5.3
			C177.9,83.8,176.9,83.3,175.3,84z"/>
		<path id="LeftRim_PlusSplit" class="persona_group-chest-leftrimsplits-opacity" opacity="0.27" d="M103.7,118.5V87.1c0-1.9-1.1-3.5-2.6-4.4l-79-39.5c-1.6-0.7-3.3-0.7-4.8,0.2
			S15,45.8,15,47.6v104.9c0,1.9,1.1,3.5,2.6,4.4l79,39.5c0.7,0.2,1.4,0.4,2.1,0.4c0.9,0,1.8-0.2,2.6-0.7c1.4-0.9,2.3-2.5,2.3-4.2
			v-62.5l31.5-15.2v-10.8L103.7,118.5z M93.8,183.8l-69.1-34.6V95.4l69.1,33.2V183.8z M93.8,117.9L24.7,84.7V55.5l69.1,34.6V117.9z"
			/>
	</g>
	<path id="Lock" class="persona_group-chest-lock-opacity" opacity="0.4" d="M149.3,91.1l-10.7,5.3c-1.9,0.9-3.3,3.2-3.3,5.1v1.8v10.8v3c0,1.9,1.6,2.6,3.3,1.8l10.7-5.3
		c1.9-0.9,3.3-3.2,3.3-5.1v-2.7V94.9v-2.1C152.8,90.9,151.2,90.2,149.3,91.1z"/>
	<path id="Border" d="M97,198.1l-79.1-39.5c-2.5-1.2-3.9-3.5-3.9-6.2v-105c0-2.6,1.6-4.9,3.9-6.2L97,1.7c1.9-1.1,4.2-1.1,6.2,0
		l79.1,39.5c2.5,1.2,3.9,3.5,3.9,6.2v105.1c0,2.6-1.6,4.9-3.9,6.2l-79,39.7c-1.1,0.5-2.1,0.7-3.2,0.7C99.1,199,98.1,198.6,97,198.1z
		M172.3,51.8l-72.1-36.1L28.1,51.8v96.4l72.1,36.1l72.1-36.1L172.3,51.8L172.3,51.8z"/>
</g>
</svg>
