<?xml version="1.0" encoding="utf-8"?>
<!-- Generator: Adobe Illustrator 24.1.3, SVG Export Plug-In . SVG Version: 6.00 Build 0)  -->
<svg version="1.1" id="persona_group-body--c" xmlns="http://www.w3.org/2000/svg" xmlns:xlink="http://www.w3.org/1999/xlink"
	 x="0px" y="0px" viewBox="0 0 200 200" style="enable-background:new 0 0 200 200;" xml:space="preserve">

<style type="text/css">
	/*
	Classes Used by IE and MSEdge with Mono Parent Color Fallback for IE
	Chrome, Chromium Edge, and Firefox use the 'fill' Attributes Over the Classes
	==============================================================================  */
	.persona_group-body--color1{
		fill: currentColor;
		fill: var(--color-1, currentColor);
	}
</style>
<g id="persona_group-body" class="persona_group-body--color1" fill="var(--color-1, currentColor)">
	<path id="body" d="M161.1,51H36.4c-3.2,0-5.9,2.6-5.9,5.9v6.5c0,3.2,2.6,5.9,5.9,5.9h40.4v46.6l-9.9,54.5c-0.6,3.2,1.6,6.3,4.7,6.8
		l6.4,1.2c3.2,0.6,6.3-1.6,6.8-4.7l8.9-49.2h10l8.9,49.2c0.6,3.2,3.6,5.3,6.8,4.7l6.4-1.2c3.2-0.6,5.3-3.6,4.7-6.8l-9.5-52.6V69.3
		h39.9c3.2,0,5.9-2.6,5.9-5.9v-6.5C167,53.6,164.3,51,161.1,51z"/>
	<path id="head" d="M111.3,46.4H87.6c-3.5,0-6.4-2.9-6.4-6.4V18.8c0-3.5,2.9-6.4,6.4-6.4h23.7c3.5,0,6.4,2.9,6.4,6.4V40
		C117.8,43.5,114.9,46.4,111.3,46.4z"/>
</g>
</svg>
