<?xml version="1.0" encoding="iso-8859-1"?>
<!-- Generator: Adobe Illustrator 24.2.3, SVG Export Plug-In . SVG Version: 6.00 Build 0)  -->
<svg version="1.1" id="Layer_1" xmlns="http://www.w3.org/2000/svg" xmlns:xlink="http://www.w3.org/1999/xlink" x="0px" y="0px"
	 viewBox="0 0 14 14" style="enable-background:new 0 0 14 14;" xml:space="preserve">
<g>
	<polygon style="fill:none;" points="6,6 6,7 6,8 7,8 8,8 8,7 8,6 7,6 	"/>
	<polygon style="fill:#1E4416;" points="13,0 12,0 11,0 10,0 9,0 8,0 8,1 8,2 9,2 9,1 10,1 11,1 12,1 13,1 13,2 13,3 13,4 13,5 
		12,5 12,6 13,6 14,6 14,5 14,4 14,3 14,2 14,1 14,0 	"/>
	<polygon style="fill:#E7FFE2;" points="11,2 12,2 13,2 13,1 12,1 11,1 10,1 9,1 9,2 10,2 	"/>
	<rect x="4" y="2" style="fill:#1E4416;" width="1" height="1"/>
	<rect x="9" y="2" style="fill:#1E4416;" width="1" height="1"/>
	<polygon style="fill:#9FD794;" points="10,2 10,3 10,4 11,4 12,4 12,3 12,2 11,2 	"/>
	<polygon style="fill:#E7FFE2;" points="2,3 2,2 3,2 4,2 5,2 5,1 4,1 3,1 2,1 1,1 1,2 1,3 1,4 1,5 2,5 2,4 	"/>
	<rect x="5" y="3" style="fill:#1E4416;" width="1" height="1"/>
	<rect x="8" y="3" style="fill:#1E4416;" width="1" height="1"/>
	<rect x="9" y="3" style="fill:#E7FFE2;" width="1" height="1"/>
	<polygon style="fill:#1E4416;" points="1,4 1,3 1,2 1,1 2,1 3,1 4,1 5,1 5,2 6,2 6,1 6,0 5,0 4,0 3,0 2,0 1,0 0,0 0,1 0,2 0,3 0,4 
		0,5 0,6 1,6 2,6 2,5 1,5 	"/>
	<rect x="2" y="4" style="fill:#1E4416;" width="1" height="1"/>
	<polygon style="fill:#9FD794;" points="5,5 6,5 6,4 5,4 5,3 4,3 4,2 3,2 2,2 2,3 2,4 3,4 3,5 4,5 	"/>
	<rect x="8" y="4" style="fill:#E7FFE2;" width="1" height="1"/>
	<rect x="9" y="4" style="fill:#9FD794;" width="1" height="1"/>
	<rect x="10" y="4" style="fill:#6C9D62;" width="1" height="1"/>
	<rect x="11" y="4" style="fill:#1E4416;" width="1" height="1"/>
	<polygon style="fill:#6C9D62;" points="13,4 13,3 13,2 12,2 12,3 12,4 12,5 13,5 	"/>
	<rect x="3" y="5" style="fill:#1E4416;" width="1" height="1"/>
	<polygon style="fill:#6C9D62;" points="6,6 6,5 5,5 4,5 4,6 5,6 	"/>
	<polygon style="fill:#1E4416;" points="6,6 7,6 8,6 8,5 8,4 7,4 6,4 6,5 	"/>
	<rect x="8" y="5" style="fill:#9FD794;" width="1" height="1"/>
	<rect x="9" y="5" style="fill:#6C9D62;" width="1" height="1"/>
	<rect x="10" y="5" style="fill:#1E4416;" width="1" height="1"/>
	<polygon style="fill:#1E4416;" points="8,6 8,7 8,8 9,8 10,8 10,7 10,6 9,6 	"/>
	<polygon style="fill:#1E4416;" points="6,8 6,7 6,6 5,6 4,6 4,7 4,8 5,8 	"/>
	<rect x="3" y="8" style="fill:#1E4416;" width="1" height="1"/>
	<polygon style="fill:#1E4416;" points="8,8 7,8 6,8 6,9 6,10 7,10 8,10 8,9 	"/>
	<polygon style="fill:#FFFFFF;" points="8,8 8,9 8,10 9,10 9,9 10,9 10,8 9,8 	"/>
	<rect x="10" y="8" style="fill:#1E4416;" width="1" height="1"/>
	<polygon style="fill:#E7FFE2;" points="1,10 1,11 1,12 2,12 2,11 2,10 2,9 1,9 	"/>
	<rect x="2" y="9" style="fill:#1E4416;" width="1" height="1"/>
	<rect x="5" y="9" style="fill:#6C9D62;" width="1" height="1"/>
	<polygon style="fill:#9FD794;" points="9,9 9,10 9,11 10,11 10,12 11,12 12,12 12,11 12,10 11,10 11,9 10,9 	"/>
	<rect x="11" y="9" style="fill:#1E4416;" width="1" height="1"/>
	<polygon style="fill:#1E4416;" points="13,10 13,11 13,12 13,13 12,13 11,13 10,13 9,13 9,12 8,12 8,13 8,14 9,14 10,14 11,14 
		12,14 13,14 14,14 14,13 14,12 14,11 14,10 14,9 14,8 13,8 12,8 12,9 13,9 	"/>
	<polygon style="fill:#9FD794;" points="2,10 2,11 2,12 3,12 3,11 4,11 4,10 5,10 5,9 6,9 6,8 5,8 4,8 4,9 3,9 3,10 	"/>
	<rect x="4" y="10" style="fill:#6C9D62;" width="1" height="1"/>
	<rect x="5" y="10" style="fill:#1E4416;" width="1" height="1"/>
	<rect x="8" y="10" style="fill:#1E4416;" width="1" height="1"/>
	<polygon style="fill:#6C9D62;" points="12,11 12,12 11,12 10,12 9,12 9,13 10,13 11,13 12,13 13,13 13,12 13,11 13,10 13,9 12,9 
		12,10 	"/>
	<polygon style="fill:#6C9D62;" points="4,11 3,11 3,12 2,12 1,12 1,13 2,13 3,13 4,13 5,13 5,12 4,12 	"/>
	<rect x="4" y="11" style="fill:#1E4416;" width="1" height="1"/>
	<rect x="9" y="11" style="fill:#1E4416;" width="1" height="1"/>
	<polygon style="fill:#1E4416;" points="4,13 3,13 2,13 1,13 1,12 1,11 1,10 1,9 2,9 2,8 1,8 0,8 0,9 0,10 0,11 0,12 0,13 0,14 
		1,14 2,14 3,14 4,14 5,14 6,14 6,13 6,12 5,12 5,13 	"/>
</g>
</svg>
