<?xml version="1.0" encoding="iso-8859-1"?>
<!-- Generator: Adobe Illustrator 24.2.3, SVG Export Plug-In . SVG Version: 6.00 Build 0)  -->
<svg version="1.1" id="Layer_1" xmlns="http://www.w3.org/2000/svg" xmlns:xlink="http://www.w3.org/1999/xlink" x="0px" y="0px"
	 viewBox="0 0 9 11" style="enable-background:new 0 0 9 11;" xml:space="preserve">
<g>
	<rect x="4" y="3" style="fill:none;" width="1" height="1"/>
	<polygon style="fill:#333333;" points="5,1 6,1 6,0 5,0 4,0 3,0 3,1 4,1 	"/>
	<rect x="2" y="1" style="fill:#333333;" width="1" height="1"/>
	<polygon style="fill:#F7F7F7;" points="4,2 5,2 6,2 6,1 5,1 4,1 3,1 3,2 	"/>
	<rect x="6" y="1" style="fill:#333333;" width="1" height="1"/>
	<polygon style="fill:#DEDEDE;" points="6,3 6,4 6,5 7,5 7,4 7,3 7,2 6,2 	"/>
	<path style="fill:#333333;" d="M6,3V2H5H4H3v1v1v1h1h1h1V4V3z M4,4V3h1v1H4z"/>
	<polygon style="fill:#333333;" points="7,4 7,5 8,5 8,4 8,3 8,2 7,2 7,3 	"/>
	<polygon style="fill:#333333;" points="2,4 2,3 2,2 1,2 1,3 1,4 1,5 2,5 	"/>
	<polygon style="fill:#333333;" points="8,5 8,6 8,7 8,8 8,9 8,10 9,10 9,9 9,8 9,7 9,6 9,5 	"/>
	<polygon style="fill:#F7F7F7;" points="1,7 2,7 2,6 3,6 4,6 5,6 6,6 7,6 8,6 8,5 7,5 6,5 5,5 4,5 3,5 3,4 3,3 3,2 2,2 2,3 2,4 2,5 
		1,5 1,6 	"/>
	<polygon style="fill:#DEDEDE;" points="6,6 5,6 5,7 6,7 6,8 5,8 5,9 6,9 7,9 7,8 8,8 8,7 8,6 7,6 	"/>
	<polygon style="fill:#A3A3A3;" points="6,8 6,7 5,7 5,6 4,6 4,7 3,7 3,8 4,8 4,9 5,9 5,8 	"/>
	<polygon style="fill:#333333;" points="1,8 1,7 1,6 1,5 0,5 0,6 0,7 0,8 0,9 0,10 1,10 1,9 	"/>
	<polygon style="fill:#DEDEDE;" points="3,8 3,7 4,7 4,6 3,6 2,6 2,7 1,7 1,8 1,9 2,9 3,9 4,9 4,8 	"/>
	<polygon style="fill:#BFBFBF;" points="8,8 7,8 7,9 6,9 5,9 4,9 3,9 2,9 1,9 1,10 2,10 3,10 4,10 5,10 6,10 7,10 8,10 8,9 	"/>
	<polygon style="fill:#333333;" points="6,10 5,10 4,10 3,10 2,10 1,10 1,11 2,11 3,11 4,11 5,11 6,11 7,11 8,11 8,10 7,10 	"/>
</g>
</svg>
