<?xml version="1.0" encoding="iso-8859-1"?>
<!-- Generator: Adobe Illustrator 24.2.3, SVG Export Plug-In . SVG Version: 6.00 Build 0)  -->
<svg version="1.1" id="Layer_1" xmlns="http://www.w3.org/2000/svg" xmlns:xlink="http://www.w3.org/1999/xlink" x="0px" y="0px"
	 viewBox="0 0 9 9" style="enable-background:new 0 0 9 9;" xml:space="preserve">
<g>
	<rect x="4" style="fill:#121A11;" width="1" height="1"/>
	<rect x="3" y="1" style="fill:#121A11;" width="1" height="1"/>
	<rect x="4" y="1" style="fill:#D6FFD1;" width="1" height="1"/>
	<rect x="5" y="1" style="fill:#121A11;" width="1" height="1"/>
	<rect x="2" y="2" style="fill:#121A11;" width="1" height="1"/>
	<rect x="3" y="2" style="fill:#D6FFD1;" width="1" height="1"/>
	<rect x="5" y="2" style="fill:#8ACF82;" width="1" height="1"/>
	<rect x="6" y="2" style="fill:#121A11;" width="1" height="1"/>
	<rect x="1" y="3" style="fill:#121A11;" width="1" height="1"/>
	<rect x="2" y="3" style="fill:#D6FFD1;" width="1" height="1"/>
	<polygon style="fill:#15E000;" points="6,3 5,3 5,2 4,2 4,3 3,3 3,4 2,4 2,5 3,5 3,6 4,6 4,7 5,7 5,6 6,6 6,5 7,5 7,4 6,4 	"/>
	<rect x="6" y="3" style="fill:#8ACF82;" width="1" height="1"/>
	<rect x="7" y="3" style="fill:#121A11;" width="1" height="1"/>
	<rect y="4" style="fill:#121A11;" width="1" height="1"/>
	<rect x="1" y="4" style="fill:#D6FFD1;" width="1" height="1"/>
	<rect x="7" y="4" style="fill:#0F9100;" width="1" height="1"/>
	<rect x="8" y="4" style="fill:#121A11;" width="1" height="1"/>
	<rect x="1" y="5" style="fill:#121A11;" width="1" height="1"/>
	<rect x="2" y="5" style="fill:#0F9100;" width="1" height="1"/>
	<rect x="6" y="5" style="fill:#0F9100;" width="1" height="1"/>
	<rect x="7" y="5" style="fill:#121A11;" width="1" height="1"/>
	<rect x="2" y="6" style="fill:#121A11;" width="1" height="1"/>
	<rect x="3" y="6" style="fill:#0F9100;" width="1" height="1"/>
	<rect x="5" y="6" style="fill:#0F9100;" width="1" height="1"/>
	<rect x="6" y="6" style="fill:#121A11;" width="1" height="1"/>
	<rect x="3" y="7" style="fill:#121A11;" width="1" height="1"/>
	<rect x="4" y="7" style="fill:#0F9100;" width="1" height="1"/>
	<rect x="5" y="7" style="fill:#121A11;" width="1" height="1"/>
	<rect x="4" y="8" style="fill:#121A11;" width="1" height="1"/>
</g>
</svg>
