<?xml version="1.0" encoding="utf-8"?>
<!-- Generator: Adobe Illustrator 24.2.3, SVG Export Plug-In . SVG Version: 6.00 Build 0)  -->
<svg version="1.1" id="Layer_1" xmlns="http://www.w3.org/2000/svg" xmlns:xlink="http://www.w3.org/1999/xlink" x="0px" y="0px"
	 viewBox="0 0 20 19" style="enable-background:new 0 0 20 19;" xml:space="preserve">
<style type="text/css">
	.st0{fill:#9C6346;}
	.st1{fill:#DBB0A9;}
	.st2{fill:#281C0B;}
	.st3{fill:#A33124;}
	.st4{fill:#8C2A1F;}
	.st5{fill:#472B13;}
	.st6{fill:#2F200D;}
	.st7{fill:#2B1E0D;}
	.st8{fill:#E5A19E;}
	.st9{fill:#AC765A;}
	.st10{fill:#9C694C;}
	.st11{fill:#BB8972;}
	.st12{fill:#BD8B72;}
	.st13{fill:#CC8D95;}
	.st14{fill:#824C41;}
	.st15{fill:#46561E;}
	.st16{fill:#FFFFFF;}
	.st17{fill:#8D5B58;}
	.st18{fill:#523D89;}
	.st19{fill:#B78272;}
	.st20{fill:#6A4030;}
	.st21{fill:#CCB2B1;}
	.st22{fill:#B37B62;}
	.st23{fill:#965F40;}
	.st24{fill:#774235;}
	.st25{fill:#CD6665;}
	.st26{fill:#905E43;}
	.st27{fill:#6F452C;}
	.st28{fill:#6D432A;}
	.st29{fill:#815339;}
</style>
<g>
	<polygon class="st0" points="11,18.5 11,12.3 11,6 6.7,6 2.4,6 2.4,12.3 2.4,18.5 6.7,18.5 	"/>
	<polygon class="st1" points="16.1,6 14.4,6 12.7,6 11,6 11,12.3 11,18.5 12.7,18.5 14.4,18.5 16.1,18.5 17.8,18.5 19.5,18.5 
		19.5,12.3 19.5,6 17.8,6 	"/>
	<polygon class="st2" points="7,0.6 2.5,0.6 2.5,2.5 0.5,2.5 0.5,5.5 0.5,8.5 6,8.5 11.5,8.5 11.5,8 11.5,5.5 11.5,4.3 11.5,2.5 
		11.5,0.6 	"/>
	<polygon class="st3" points="17.7,1.6 16,1.6 15.2,1.6 11,1.6 11,3.8 11,6 15.2,6 16,6 16,8 17.7,8 19.5,8 19.5,6 19.5,4.8 
		19.5,3.8 19.5,1.6 	"/>
	<polygon class="st3" points="17,2 16,2 16,3 16,4 17,4 18,4 18,5 18,6 18,7 18,8 18,9 18,10 19,10 19,9 19,8 19,7 19,6 19,5 19,4 
		19,3 19,2 18,2 	"/>
	<polygon class="st4" points="13,4 12,4 11,4 11,5 11,6 12,6 13,6 14,6 15,6 16,6 16,7 16,8 17,8 18,8 18,7 18,6 18,5 18,4 17,4 
		16,4 16,3 16,2 15,2 14,2 13,2 13,3 	"/>
	<polygon class="st5" points="9,6 10,6 11,6 11,5 11,4 10,4 9,4 9,5 8,5 7,5 7,6 8,6 	"/>
	<polygon class="st6" points="2,7 3,7 3,6 3,5 3,4 4,4 5,4 5,3 5,2 6,2 7,2 8,2 9,2 10,2 11,2 11,1 10,1 9,1 8,1 7,1 6,1 5,1 4,1 
		3,1 3,2 3,3 2,3 1,3 1,4 1,5 1,6 2,6 	"/>
	<polygon class="st5" points="2,7 2,6 1,6 1,7 1,8 2,8 3,8 3,7 	"/>
	<polygon class="st7" points="5,8 5,7 5,6 6,6 7,6 7,5 8,5 9,5 9,4 8,4 7,4 7,3 7,2 6,2 5,2 5,3 5,4 4,4 3,4 3,5 3,6 3,7 3,8 4,8 	
		"/>
	<polygon class="st8" points="15,8 14,8 13,8 13,9 13,10 14,10 15,10 16,10 17,10 17,9 17,8 16,8 	"/>
	<polygon class="st9" points="6,9 7,9 8,9 9,9 10,9 11,9 11,8 11,7 11,6 10,6 9,6 8,6 7,6 6,6 5,6 5,7 5,8 5,9 5,10 6,10 	"/>
	<polygon class="st10" points="8,9 7,9 6,9 6,10 7,10 8,10 	"/>
	<rect x="8" y="9" class="st11" width="3" height="1"/>
	<polygon class="st12" points="9,9 9,10 9,11 10,11 11,11 11,10 11,9 10,9 	"/>
	<polygon class="st13" points="18,9 18,8 17,8 17,9 17,10 17,11 17,12 18,12 19,12 19,11 19,10 18,10 	"/>
	<polygon class="st14" points="5,11 5,10 5,9 5,8 4,8 3,8 3,9 3,10 3,11 4,11 	"/>
	<polygon class="st1" points="13,10 13,9 13,8 14,8 15,8 16,8 16,7 16,6 15,6 14,6 13,6 12,6 11,6 11,7 11,8 11,9 11,10 11,11 
		11,12 12,12 13,12 13,11 	"/>
	<polygon class="st15" points="15,10 14,10 13,10 13,11 13,12 14,12 15,12 15,11 	"/>
	<polygon class="st16" points="15,10 15,11 15,12 16,12 17,12 17,11 17,10 16,10 	"/>
	<polygon class="st17" points="5,12 5,11 4,11 3,11 3,12 4,12 	"/>
	<polygon class="st16" points="7,12 7,11 7,10 6,10 5,10 5,11 5,12 6,12 	"/>
	<polygon class="st18" points="9,12 9,11 9,10 8,10 7,10 7,11 7,12 8,12 	"/>
	<polygon class="st11" points="9,11 9,12 10,12 11,12 11,11 10,11 	"/>
	<polygon class="st19" points="9,12 8,12 7,12 7,13 7,14 8,14 9,14 9,13 	"/>
	<polygon class="st20" points="9,12 9,13 9,14 10,14 11,14 11,13 11,12 10,12 	"/>
	<polygon class="st21" points="11,12 11,13 11,14 12,14 13,14 13,13 13,12 12,12 	"/>
	<polygon class="st8" points="17,12 16,12 15,12 14,12 14,13 14,14 15,14 16,14 17,14 18,14 19,14 19,13 19,12 18,12 	"/>
	<polygon class="st22" points="7,14 7,13 7,12 6,12 5,12 5,13 5,14 6,14 	"/>
	<polygon class="st23" points="7,14 6,14 5,14 5,15 5,16 6,16 7,16 7,15 	"/>
	<polygon class="st24" points="11,14 10,14 9,14 8,14 7,14 7,15 7,16 8,16 9,16 10,16 11,16 11,15 	"/>
	<polygon class="st25" points="11,14 11,15 11,16 12,16 13,16 13,15 13,14 12,14 	"/>
	<polygon class="st13" points="17,14 16,14 16,15 16,16 16,17 16,18 17,18 18,18 19,18 19,17 19,16 19,15 19,14 18,14 	"/>
	<polygon class="st26" points="5,16 5,15 5,14 4,14 3,14 3,15 3,16 4,16 	"/>
	<polygon class="st27" points="7,16 5,16 3,16 3,17 3,18 5,18 7,18 7,17 	"/>
	<polygon class="st28" points="7,16 6,16 5,16 5,17 5,18 6,18 7,18 7,17 	"/>
	<polygon class="st29" points="11,16 10,16 9,16 8,16 7,16 7,17 7,18 8,18 9,18 10,18 11,18 11,17 	"/>
	<polygon class="st1" points="16,16 16,15 16,14 15,14 14,14 14,13 14,12 13,12 13,13 13,14 13,15 13,16 12,16 11,16 11,17 11,18 
		12,18 13,18 14,18 15,18 16,18 16,17 	"/>
	<path d="M19,1h-1h-1h-1h-1h-1h-1h-1V0h-1h-1H9H8H7H6H5H4H3H2v1v1H1H0v1v1v1v1v1v1v1h1h1v1v1v1v1v1v1v1v1v1v1h1h1h1h1h1h1h1h1h1h1h1
		h1h1h1h1h1h1h1v-1v-1v-1v-1v-1v-1v-1v-1v-1V9V8V7V6V5V4V3V2V1H19z M19,3v1v1v1v1v1v1v1v1v1v1v1v1v1v1v1h-1h-1h-1h-1h-1h-1h-1h-1h-1
		H9H8H7H6H5H4H3v-1v-1v-1v-1v-1v-1v-1v-1V9V8H2H1V7V6V5V4V3h1h1V2V1h1h1h1h1h1h1h1h1v1h1h1h1h1h1h1h1h1V3z"/>
</g>
</svg>
