<?xml version="1.0" encoding="iso-8859-1"?>
<!-- Generator: Adobe Illustrator 24.2.3, SVG Export Plug-In . SVG Version: 6.00 Build 0)  -->
<svg version="1.1" id="Layer_1" xmlns="http://www.w3.org/2000/svg" xmlns:xlink="http://www.w3.org/1999/xlink" x="0px" y="0px"
	 viewBox="0 0 14 22" style="enable-background:new 0 0 14 22;" xml:space="preserve">
<g>
	<polygon style="fill:#DFC6A3;" points="4,3 4,1 2.5,1 1,1 1,3 2.5,3 	"/>
	<polygon style="fill:#EBD3B3;" points="3,2 3,3 4,3 4,2 4,1 3,1 2,1 1,1 1,2 2,2 	"/>
	<polygon style="fill:#E58D3F;" points="2.5,5 2.5,4 2.5,3 1,3 1,4 1,5 1,6 2.5,6 	"/>
	<polygon style="fill:#E89D4C;" points="2,3 2,4 2,5 2,6 3,6 3,5 4,5 4,4 5,4 6,4 7,4 7,3 6,3 5,3 4,3 3,3 	"/>
	<polygon style="fill:#EFD9BB;" points="5,4 4,4 4,5 5,5 6,5 7,5 7,4 6,4 	"/>
	<rect x="4" y="5" style="fill:#236224;" width="1" height="1"/>
	<rect x="5" y="5" style="fill:#F2DDC2;" width="1" height="1"/>
	<rect x="6" y="5" style="fill:#236224;" width="1" height="1"/>
	<polygon style="fill:#DFC6A3;" points="3,7 3,6 2,6 1,6 1,7 2,7 	"/>
	<rect x="5" y="6" style="fill:#EFBBB1;" width="1" height="1"/>
	<polygon style="fill:#F2DDC2;" points="7,6 6,6 6,7 5,7 5,6 4,6 4,5 3,5 3,6 3,7 3,8 4,8 5,8 6,8 7,8 7,7 	"/>
	<rect x="7" y="7" style="fill:#E58D3F;" width="1" height="1"/>
	<polygon style="fill:#8CBE8A;" points="0.506,13.5 4.003,13.5 7.5,13.5 7.5,9 4.003,9 0.506,9 	"/>
	<polygon style="fill:#3B3B3B;" points="6.5,18.516 5,18.516 3.5,18.516 3.5,20.024 3.5,21.531 5,21.531 6.5,21.531 6.5,20.024 	"/>
	<polygon style="fill:#4D4D4D;" points="6,20.024 6,21.531 7.5,21.531 7.5,20.024 7.5,18.516 6,18.516 	"/>
	<polygon style="fill:#64412C;" points="7.5,19 7.5,18 7.5,17 7.5,16 7.5,15 7.5,14 5,14 4,14 3,14 3,15 4,15 4,16 4,17 4,18 4,19 
		5,19 	"/>
	<polygon style="fill:#64412C;" points="0.506,14 0.506,17.39 7.5,17.39 7.5,16.712 7.5,16.034 7.5,15.356 7.5,14.678 7.5,14 	"/>
	<polygon style="fill:#64412C;" points="3.5,14 3.5,19 7.5,19 7.5,18 7.5,17 7.5,16 7.5,15 7.5,14 	"/>
	<polygon style="fill:#8CBE8A;" points="0.506,13.5 1.753,13.5 3,13.5 3,7 1.753,7 0.506,7 	"/>
	<polygon style="fill:#8CBE8A;" points="2,9 2,10 2,11 2,12 2,13 3,13 3,12 4,12 5,12 6,12 6,11 6,10 5,10 4,10 4,9 3,9 3,8 2,8 	
		"/>
	<polygon style="fill:#8CBE8A;" points="0.506,11.5 4.253,11.5 8,11.5 8,9 4.253,9 0.506,9 	"/>
	<rect x="2" y="7" style="fill:#8C8D68;" width="1" height="1"/>
	<rect x="3" y="8" style="fill:#8C8D68;" width="1" height="1"/>
	<polygon style="fill:#DFC6A3;" points="5,9 6,9 6,8 5,8 4,8 4,9 	"/>
	<rect x="6" y="8" style="fill:#8C8D68;" width="1" height="1"/>
	<polygon style="fill:#8C8D68;" points="4,9 4,10 5,10 6,10 6,9 5,9 	"/>
	<polygon style="fill:#8CBE8A;" points="6,10 7,10 8,10 8,9 7,9 6,9 	"/>
	<polygon style="fill:#EBD3B3;" points="9,10 10,10 11,10 12,10 13,10 13,9 12,9 11,9 10,9 9,9 8,9 8,10 	"/>
	<polygon style="fill:#7AAF77;" points="7,10 6,10 6,11 6,12 5,12 4,12 3,12 3,13 4,13 5,13 6,13 7,13 7,12 7,11 8,11 8,10 	"/>
	<polygon style="fill:#DFC6A3;" points="11,10 10,10 9,10 8,10 8,11 9,11 10,11 11,11 12,11 13,11 13,10 12,10 	"/>
	<polygon style="fill:#7AAF77;" points="2,12 2,11 2,10 2,9 2,8 2,7 1,7 1,8 1,9 1,10 1,11 1,12 1,13 2,13 	"/>
	<polygon style="fill:#1A3F19;" points="4.702,13 3.304,13 1.905,13 0.506,13 0.506,14 1.905,14 3.304,14 4.702,14 6.101,14 7.5,14 
		7.5,13 6.101,13 	"/>
	<rect x="1" y="13" style="fill:#183816;" width="1" height="1"/>
	<polygon style="fill:#724E36;" points="2,14 2,15 2,16 3,16 3,15 3,14 	"/>
	<rect x="6" y="14" style="fill:#AA7450;" width="1" height="1"/>
	<polygon style="fill:#64412C;" points="2,15 2,14 1,14 1,15 1,16 1,17 2,17 3,17 3,16 2,16 	"/>
	<polygon style="fill:#724E36;" points="6,16 6,17 6,18 6,19 7,19 7,18 7,17 7,16 7,15 6,15 	"/>
	<polygon points="13,8 12,8 11,8 10,8 9,8 9,7 8,7 8,8 7,8 7,9 8,9 9,9 10,9 11,9 12,9 13,9 13,10 13,11 12,11 11,11 10,11 9,11 
		8,11 7,11 7,12 7,13 7,14 7,15 7,16 7,17 7,18 7,19 7,20 7,21 6,21 5,21 4,21 4,20 4,19 4,18 4,17 4,16 4,15 3,15 3,16 3,17 2,17 
		1,17 1,16 1,15 1,14 1,13 1,12 1,11 1,10 1,9 1,8 1,7 1,6 1,5 1,4 1,3 1,2 1,1 2,1 3,1 4,1 4,2 4,3 5,3 6,3 7,3 7,4 7,5 7,6 7,7 
		8,7 8,6 8,5 8,4 8,3 8,2 7,2 6,2 5,2 5,1 5,0 4,0 3,0 2,0 1,0 0,0 0,1 0,2 0,3 0,4 0,5 0,6 0,7 0,8 0,9 0,10 0,11 0,12 0,13 0,14 
		0,15 0,16 0,17 0,18 1,18 2,18 3,18 3,19 3,20 3,21 3,22 4,22 5,22 6,22 7,22 8,22 8,21 8,20 8,19 8,18 8,17 8,16 8,15 8,14 8,13 
		8,12 9,12 10,12 11,12 12,12 13,12 14,12 14,11 14,10 14,9 14,8 	"/>
</g>
</svg>
