<?xml version="1.0" encoding="iso-8859-1"?>
<!-- Generator: Adobe Illustrator 24.2.3, SVG Export Plug-In . SVG Version: 6.00 Build 0)  -->
<svg version="1.1" id="Layer_1" xmlns="http://www.w3.org/2000/svg" xmlns:xlink="http://www.w3.org/1999/xlink" x="0px" y="0px"
	 viewBox="0 0 12 20" style="enable-background:new 0 0 12 20;" xml:space="preserve">
<g>
	<polygon style="fill:#251909;" points="6,2.269 7.25,2.269 8.5,2.269 8.5,0.476 7.25,0.476 6,0.476 4.75,0.476 3.5,0.476 
		3.5,2.269 4.75,2.269 	"/>
	<polygon style="fill:#2F1F0F;" points="4.75,5.49 6,5.49 7.25,5.49 7.25,4 8.5,4 8.5,3 8.5,2 7.25,2 6,2 4.75,2 3.5,2 3.5,3 3.5,4 
		4.75,4 	"/>
	<rect x="4" y="4" style="fill:#9A6344;" width="1" height="1"/>
	<rect x="7" y="4" style="fill:#9A6344;" width="1" height="1"/>
	<polygon style="fill:#AFDDE2;" points="2.584,9.996 2.584,12.249 2.584,14.502 9.439,14.502 9.439,12.249 9.439,9.996 9.439,7.743 
		9.439,5.49 2.584,5.49 2.584,7.743 	"/>
	<rect x="4" y="6" style="fill:#C4F9FF;" width="1" height="1"/>
	<rect x="7" y="6" style="fill:#C4F9FF;" width="1" height="1"/>
	<polygon style="fill:#DFE320;" points="5,8 6,8 7,8 7,7 7,6 6,6 5,6 5,7 	"/>
	<polygon style="fill:#AA7D66;" points="9.677,9.916 9.677,11.122 9.677,12.328 11.263,12.328 11.263,11.122 11.263,9.916 
		11.263,8.71 9.677,8.71 	"/>
	<polygon style="fill:#AA7D66;" points="2.235,9.916 2.235,8.71 0.76,8.71 0.76,9.916 0.76,11.122 0.76,12.328 2.235,12.328 
		2.235,11.122 	"/>
	<polygon style="fill:#00AFAF;" points="9.677,7.856 9.677,9 11.343,9 11.343,7.856 11.343,6.711 9.677,6.711 	"/>
	<polygon style="fill:#00AFAF;" points="2.235,7.856 2.235,6.711 0.696,6.711 0.696,7.856 0.696,9 2.235,9 	"/>
	<rect x="5" y="8" style="fill:#D8A31E;" width="1" height="1"/>
	<rect x="6" y="8" style="fill:#E1CF1A;" width="1" height="1"/>
	<polygon style="fill:#C96800;" points="8,8 8,7 7,7 7,8 7,9 7,10 8,10 8,9 	"/>
	<polygon style="fill:#AFDDE2;" points="4,9 4,8 4,7 4,6 3,6 3,7 3,8 3,9 3,10 4,10 	"/>
	<polygon style="fill:#C96800;" points="6,10 6,9 5,9 5,8 5,7 4,7 4,8 4,9 4,10 5,10 	"/>
	<polygon style="fill:#D8A31E;" points="6,10 5,10 5,11 6,11 7,11 7,10 7,9 6,9 	"/>
	<rect x="7" y="10" style="fill:#FEFEFE;" width="1" height="1"/>
	<polygon style="fill:#D2F0F4;" points="6,11 5,11 5,10 4,10 4,11 4,12 5,12 6,12 7,12 8,12 8,11 7,11 	"/>
	<polygon style="fill:#9CCACF;" points="9,11 9,10 8,10 8,11 8,12 8,13 7,13 6,13 5,13 4,13 4,12 4,11 4,10 3,10 3,11 3,12 3,13 
		3,14 4,14 5,14 6,14 7,14 8,14 9,14 9,13 9,12 	"/>
	<polygon style="fill:#D7D7D7;" points="6,12 5,12 4,12 4,13 5,13 6,13 7,13 8,13 8,12 7,12 	"/>
	<polygon style="fill:#3A3189;" points="5.956,14.772 4.849,14.772 3.743,14.772 3.743,19.23 4.849,19.23 5.956,19.23 7.063,19.23 
		8.169,19.23 8.169,14.772 7.063,14.772 	"/>
	<polygon style="fill:#463AA5;" points="6,15 5,15 4,15 4,16 5,16 6,16 7,16 8,16 8,15 7,15 	"/>
	<polygon style="fill:#463AA5;" points="6,17 5,17 4,17 4,18 5,18 6,18 7,18 8,18 8,17 7,17 	"/>
	<polygon style="fill:#6B6B6B;" points="6,18 5,18 4,18 4,19 5,19 6,19 7,19 8,19 8,18 7,18 	"/>
	<path d="M11,6h-1V5H9V4V3V2V1V0H8H7H6H5H4H3v1v1v1v1v1H2v1H1H0v1v1v1v1v1v1v1h1h1v1v1h1v1v1v1v1v1h1h1h1h1h1h1v-1v-1v-1v-1v-1h1v-1
		v-1h1h1v-1v-1v-1V9V8V7V6H11z M4,4V3V2V1h1h1h1h1v1v1v1v1H7H6H5H4V4z M1,12v-1v-1V9V8V7h1v1v1v1v1v1H1z M8,16v1v1v1H7H6H5H4v-1v-1
		v-1v-1h1h1h1h1V16z M9,14H8H7H6H5H4H3v-1v-1v-1v-1V9V8V7V6h1h1h1h1h1h1v1v1v1v1v1v1v1V14z M11,8v1v1v1v1h-1v-1v-1V9V8V7h1V8z"/>
</g>
</svg>
