<?xml version="1.0" encoding="iso-8859-1"?>
<!-- Generator: Adobe Illustrator 24.2.3, SVG Export Plug-In . SVG Version: 6.00 Build 0)  -->
<svg version="1.1" id="Layer_1" xmlns="http://www.w3.org/2000/svg" xmlns:xlink="http://www.w3.org/1999/xlink" x="0px" y="0px"
	 viewBox="0 0 20 20" style="enable-background:new 0 0 20 20;" xml:space="preserve">
<g>
	<polygon style="fill:#8B3420;" points="10.995,2 12.161,2 13.328,2 13.328,1 12.161,1 10.995,1 9.829,1 8.663,1 8.663,2 9.829,2 	
		"/>
	<polygon style="fill:#875226;" points="17.469,0.523 15.484,0.523 13.5,0.523 13.5,6 15.484,6 17.469,6 	"/>
	<polygon style="fill:#4F2F10;" points="16,2 16,1 15,1 14,1 14,2 15,2 	"/>
	<rect x="16" y="1" style="fill:#886755;" width="1" height="1"/>
	<polygon style="fill:#E89D4C;" points="5,2 6,2 7,2 7,3 8,3 8,2 8,1 7,1 6,1 5,1 4,1 3,1 3,2 3,3 5,3 	"/>
	<rect x="4" y="2" style="fill:#E59947;" width="1" height="1"/>
	<polygon style="fill:#EFD9BB;" points="6,2 5,2 5,3 5,4 6,4 6,3 7,3 7,2 	"/>
	<rect x="12" y="2" style="fill:#281C0B;" width="1.328" height="1"/>
	<rect x="16" y="2" style="fill:#1E4135;" width="1" height="1"/>
	<rect x="4" y="3" style="fill:#236224;" width="1" height="1"/>
	<rect x="6" y="3" style="fill:#236224;" width="1" height="1"/>
	<rect x="9" y="3" style="fill:#543116;" width="1" height="1"/>
	<rect x="11" y="3" style="fill:#0000FB;" width="1" height="1"/>
	<rect x="12" y="3" style="fill:#A5A5FB;" width="1.328" height="1"/>
	<polygon style="fill:#875226;" points="15,3 16,3 16,2 15,2 14,2 14,3 14,4 15,4 	"/>
	<rect x="15" y="3" width="1" height="1"/>
	<rect x="16" y="3" style="fill:#FFFFFF;" width="1" height="1"/>
	<rect x="5" y="4" style="fill:#EFBBB1;" width="1" height="1"/>
	<polygon style="fill:#FB7341;" points="13,5 13,4 12,4 11,4 11,3 12,3 12,2 11,2 10,2 9,2 9,3 10,3 10,4 9,4 9,5 10,5 11,5 12,5 	
		"/>
	<rect x="14" y="4" style="fill:#672911;" width="1" height="1"/>
	<rect x="3" y="5" style="fill:#DFC6A3;" width="1" height="1"/>
	<polygon style="fill:#EFD9BB;" points="4,6 5,6 6,6 7,6 7,5 8,5 8,4 8,3 7,3 7,4 6,4 6,5 5,5 5,4 4,4 4,3 3,3 3,4 3,5 4,5 	"/>
	<rect x="7" y="5" style="fill:#DFC6A3;" width="1" height="1"/>
	<rect x="11" y="5" style="fill:#FAFAFA;" width="1" height="1"/>
	<polygon style="fill:#FB6D46;" points="12,6 12,7 13,7 14,7 15,7 15,6 14,6 13,6 13,5 12,5 	"/>
	<rect x="15.5" y="11" style="fill:#312113;" width="2.5" height="1"/>
	<rect x="12" y="7" style="fill:#F35183;" width="1" height="5"/>
	<rect x="16" y="5" style="fill:#874126;" width="1" height="1"/>
	<rect x="3" y="6" style="fill:#8C8D68;" width="1" height="1"/>
	<polygon style="fill:#DFC6A3;" points="6,6 5,6 4,6 4,7 5,7 6,7 7,7 7,6 	"/>
	<rect x="7" y="6" style="fill:#8C8D68;" width="1" height="1"/>
	<rect x="11" y="6" style="fill:#F35A32;" width="1" height="1"/>
	<polygon style="fill:#C8C8C8;" points="17,6 17,7 17,8 18,8 19,8 19,7 19,6 18,6 	"/>
	<polygon style="fill:#8CBE8A;" points="3,8 3,9 3,10 3,11 4,11 5,11 6,11 7,11 8,11 8,10 8,9 8,8 9,8 10,8 10,7 10,6 9,6 8,6 8,7 
		7,7 7,8 6,8 5,8 4,8 4,7 3,7 3,6 2,6 1,6 1,7 1,8 2,8 	"/>
	<polygon style="fill:#8C8D68;" points="5,7 4,7 4,8 5,8 6,8 7,8 7,7 6,7 	"/>
	<rect x="12" y="7" style="fill:#BB194F;" width="1" height="1"/>
	<polygon style="fill:#EBC55E;" points="14,7 13,7 13,8 13,9 14,9 15,9 15,8 14,8 	"/>
	<rect x="14" y="7" style="fill:#C29430;" width="1" height="1"/>
	<polygon style="fill:#23150B;" points="17,7 17,6 15.5,6 15.5,7 15.5,8 17,8 	"/>
	<polygon style="fill:#8C8D68;" points="3,9 3,8 2,8 1,8 1,9 2,9 	"/>
	<polygon style="fill:#8C8D68;" points="8,8 8,9 9,9 10,9 10,8 9,8 	"/>
	<polygon style="fill:#5E3D14;" points="17,8 17,9.125 17,10.25 17,11.375 17,12.5 18.246,12.5 19.492,12.5 19.492,11.375 
		19.492,10.25 19.492,9.125 19.492,8 18.246,8 	"/>
	<polygon style="fill:#EBD3B3;" points="9,10 9,11 9,12 10,12 10,11 10,10 10,9 9,9 	"/>
	<polygon style="fill:#FB6D46;" points="14,9 12.5,9 12.5,10 12.5,11 12.5,12 14,12 15.5,12 15.5,11 15.5,10 15.5,9 	"/>
	<polygon style="fill:#EBD3B3;" points="2,10 2,9 1,9 1,10 1,11 1,12 2,12 2,11 	"/>
	<polygon style="fill:#DFC6A3;" points="3,10 3,9 2,9 2,10 2,11 2,12 3,12 3,11 	"/>
	<polygon style="fill:#DFC6A3;" points="9,10 9,9 8,9 8,10 8,11 8,12 9,12 9,11 	"/>
	<polygon style="fill:#BB194F;" points="13,10 13,9 12,9 12,10 12,11 12,12 13,12 13,11 	"/>
	<polygon style="fill:#C8C8C8;" points="17,10 17,9 17,8 16,8 16,9 16,10 16,11 17,11 	"/>
	<polygon style="fill:#1A3F19;" points="5,12 6,12 7,12 8,12 8,11 7,11 6,11 5,11 4,11 3,11 3,12 4,12 	"/>
	<polygon style="fill:#EBC55E;" points="12,11 12,10 12,9 12,8 12,7 11,7 11,8 11,9 11,10 11,11 11,12 12,12 	"/>
	<rect x="13" y="9" style="fill:#F35A32;" width="1" height="1"/>
	<rect x="13" y="11" style="fill:#F35A32;" width="1" height="1"/>
	<polygon id="underpatch" style="fill:#291C11;" points="14.823,12 13.5,12 13.5,15 13.5,18 14.823,18 16.146,18 17.469,18 
		17.469,15 17.469,12 16.146,12 	"/>
	<polygon style="fill:#4D4D4D;" points="17.469,19.42 17.469,17 15.484,17 13.5,17 13.5,19.42 15.484,19.42 	"/>
	<rect x="16" y="12" style="fill:#685144;" width="1" height="1"/>
	<polygon style="fill:#8CBE8A;" points="4,13 5,13 6,13 7,13 7,14 8,14 8,13 8,12 7,12 6,12 5,12 4,12 3,12 3,13 3,14 4,14 	"/>
	<polygon style="fill:#43602B;" points="13,15 13,14 12,14 12,13 12,12 11,12 11,13 10,13 9,13 9,14 9,15 10,15 11,15 12,15 	"/>
	<polygon style="fill:#6F4C20;" points="15,15 15,16 15,17 16,17 17,17 17,16 17,15 16,15 	"/>
	<rect x="9" y="16" style="fill:#43602B;" width="1" height="1"/>
	<rect x="8.5" y="16.612" style="fill:#F86131;" width="4.828" height="1.888"/>
	<polygon style="fill:#43602B;" points="13,17 13,12 10.831,12 8.663,12 8.663,17 10.831,17 	"/>
	<rect x="9" y="15" style="fill:#2D4A16;" width="1" height="1"/>
	<polygon style="fill:#2D4A16;" points="12,13 12,14 13,14 13,13 13,12 12,12 	"/>
	<polygon style="fill:#2D4A16;" points="13,16 13,15 12,15 11,15 11,16 12,16 	"/>
	<polygon style="fill:#64412C;" points="15,16 15,15 14,15 14,16 14,17 15,17 	"/>
	<rect x="2.5" y="16.326" style="fill:#4D4D4D;" width="3" height="3.094"/>
	<rect x="5.5" y="15.5" style="fill:#4D4D4D;" width="3" height="3.92"/>
	<polygon style="fill:#3B3B3B;" points="4,17 3,17 3,18 3,19 4,19 5,19 5,18 4,18 	"/>
	<polygon style="fill:#3B3B3B;" points="8,17 7,17 7,18 6,18 6,19 7,19 8,19 8,18 	"/>
	<polygon style="fill:#64412C;" points="7,14 7,13 6,13 5,13 4,13 4,14 2.5,14 2.5,15 2.5,16 2.5,17 4,17 5,17 5,16 6,16 7,16 
		8.5,16 8.5,15 8.5,14 	"/>
	<polygon style="display:none;fill:#F86131;" points="13,18 13,17 12,17 11,17 11,18 12,18 	"/>
	<polygon style="fill:#3B3B3B;" points="16,18 15,18 14,18 14,19 15,19 16,19 17,19 17,18 17,17 16,17 	"/>
	<rect x="9" y="18" style="fill:#834029;" width="1" height="1"/>
	<polygon style="fill:#834029;" points="12,18 11,18 11,19 12,19 13,19 13,18 	"/>
	<path d="M19,5h-1V4V3V2V1V0h-1h-1h-1h-1h-1h-1h-1h-1H9H8H7H6H5H4H3H2v1v1v1v1v1H1H0v1v1v1v1v1v1v1v1h1h1v1v1v1v1v1v1v1h1h1h1h1h1h1
		h1h1h1h1h1h1h1h1h1h1v-1v-1v-1v-1v-1v-1v-1h1h1v-1v-1v-1V9V8V7V6V5H19z M7,19H6v-1v-1v-1v-1H5v1v1v1v1H4H3v-1v-1v-1v-1v-1v-1v-1H2
		H1v-1v-1V9V8V7V6h1h1V5V4V3V2V1h1h1h1h1h1v1v1v1v1v1h1h1v1v1v1v1v1v1H9H8v1v1v1v1v1v1v1H7z M12,19h-1v-1v-1v-1v-1h-1v1v1v1v1H9v-1
		v-1v-1v-1v-1v-1h1h1v-1v-1v-1V9V8V7V6V5h-1H9V4V3V2V1h1h1h1h1v1v1v1v1v1h1h1v1v1v1v1v1v1h-1h-1v1v1v1v1v1v1v1H12z M19,7v1v1v1v1v1
		h-1h-1v1v1v1v1v1v1v1h-1h-1h-1v-1v-1v-1v-1v-1v-1h1h1v-1v-1v-1V9V8V7V6V5h-1h-1V4V3V2V1h1h1h1v1v1v1v1v1h1h1V7z"/>
</g>
</svg>
