<?xml version="1.0" encoding="utf-8"?>
<!-- Generator: Adobe Illustrator 24.2.3, SVG Export Plug-In . SVG Version: 6.00 Build 0)  -->
<svg version="1.1" id="Layer_1" xmlns="http://www.w3.org/2000/svg" xmlns:xlink="http://www.w3.org/1999/xlink" x="0px" y="0px"
	 viewBox="0 0 9 9" style="enable-background:new 0 0 9 9;" xml:space="preserve">
<style type="text/css">
	.st0{fill:none;}
	.st1{fill:#DFF2F8;}
	.st2{fill:#7EDDE4;}
	.st3{fill:#38B8BC;}
	.st4{fill:#329689;}
	.st5{fill:#0B3531;}
	.st6{fill:#3EC6D6;}
	.st7{fill:#051715;}
</style>
<g>
	<polygon class="st0" points="7,7 6,7 6,8 7,8 8,8 8,7 8,6 7,6 	"/>
	<polygon class="st1" points="5,2 5,1 4,1 3,1 3,2 4,2 	"/>
	<polygon class="st2" points="5,3 5,4 6,4 6,3 6,2 6,1 5,1 5,2 	"/>
	<polygon class="st3" points="6,4 5,4 4,4 3,4 3,5 2,5 2,6 3,6 4,6 5,6 6,6 6,5 7,5 7,4 	"/>
	<rect x="7" y="4" class="st4" width="1" height="1"/>
	<rect x="1" y="5" class="st5" width="1" height="1"/>
	<rect x="6" y="5" class="st4" width="1" height="1"/>
	<rect x="7" y="5" class="st5" width="1" height="1"/>
	<rect x="2" y="6" class="st5" width="1" height="1"/>
	<polygon class="st4" points="5,7 6,7 6,6 5,6 4,6 3,6 3,7 4,7 	"/>
	<rect x="6" y="6" class="st5" width="1" height="1"/>
	<polygon class="st6" points="4,6 4,5 5,5 5,4 5,3 5,2 4,2 3,2 3,3 3,4 2,4 1,4 1,5 2,5 2,6 3,6 	"/>
	<polygon class="st5" points="8,7 8,8 7,8 6,8 6,7 5,7 4,7 3,7 3,8 2,8 1,8 1,7 0,7 0,8 0,9 1,9 2,9 3,9 4,9 5,9 6,9 7,9 8,9 9,9 
		9,8 9,7 	"/>
	<polygon class="st7" points="5,8 4,8 3,8 3,9 4,9 5,9 6,9 6,8 	"/>
	<polygon class="st5" points="8,3 7,3 7,2 7,1 7,0 6,0 5,0 4,0 3,0 2,0 2,1 2,2 2,3 1,3 0,3 0,4 0,5 1,5 1,4 2,4 3,4 3,3 3,2 3,1 
		4,1 5,1 6,1 6,2 6,3 6,4 7,4 8,4 8,5 9,5 9,4 9,3 	"/>
</g>
</svg>
