<?xml version="1.0" encoding="iso-8859-1"?>
<!-- Generator: Adobe Illustrator 24.2.3, SVG Export Plug-In . SVG Version: 6.00 Build 0)  -->
<svg version="1.1" id="Layer_1" xmlns="http://www.w3.org/2000/svg" xmlns:xlink="http://www.w3.org/1999/xlink" x="0px" y="0px"
	 viewBox="0 0 16 15" style="enable-background:new 0 0 16 15;" xml:space="preserve">
<g>
	<rect x="4" y="9" style="fill:none;" width="1" height="1"/>
	<rect x="7" y="3" style="fill:none;" width="1" height="1"/>
	<rect x="12" y="9" style="fill:none;" width="1" height="1"/>
	<rect x="4" y="5" style="fill:none;" width="1" height="1"/>
	<polygon style="fill:#3F3827;" points="6,1 7,1 8,1 9,1 10,1 11,1 11,0 10,0 9,0 8,0 7,0 6,0 5,0 4,0 4,1 5,1 	"/>
	<rect x="3" y="1" style="fill:#3F3827;" width="1" height="1"/>
	<polygon style="fill:#F2ECDF;" points="5,2 6,2 7,2 7,1 6,1 5,1 4,1 4,2 	"/>
	<polygon style="fill:#FFFFFF;" points="9,1 8,1 7,1 7,2 8,2 9,2 10,2 11,2 11,1 10,1 	"/>
	<rect x="11" y="1" style="fill:#3F3827;" width="1" height="1"/>
	<polygon style="fill:#1A1A1A;" points="15,1 14,1 13,1 13,2 14,2 15,2 15,3 15,4 16,4 16,3 16,2 16,1 	"/>
	<rect x="2" y="2" style="fill:#3F3827;" width="1" height="1"/>
	<rect x="3" y="2" style="fill:#F2ECDF;" width="1" height="1"/>
	<rect x="6" y="2" style="fill:#8A8270;" width="1" height="1"/>
	<rect x="7" y="2" style="fill:#3F3827;" width="1" height="1"/>
	<rect x="8" y="2" style="fill:#8A8270;" width="1" height="1"/>
	<polygon style="fill:#F2ECDF;" points="10,3 11,3 11,2 10,2 9,2 9,3 	"/>
	<rect x="11" y="2" style="fill:#FFFFFF;" width="1" height="1"/>
	<rect x="12" y="2" style="fill:#1A1A1A;" width="1" height="1"/>
	<polygon style="fill:#CADCE8;" points="14,3 15,3 15,2 14,2 13,2 13,3 	"/>
	<rect x="2" y="3" style="fill:#F2ECDF;" width="1" height="1"/>
	<polygon style="fill:#E0D6BF;" points="5,4 6,4 6,3 6,2 5,2 4,2 4,3 3,3 3,4 4,4 	"/>
	<rect x="6" y="3" style="fill:#3F3827;" width="1" height="1"/>
	<rect x="8" y="3" style="fill:#3F3827;" width="1" height="1"/>
	<polygon style="fill:#E0D6BF;" points="9,3 9,4 9,5 10,5 10,4 11,4 11,3 10,3 	"/>
	<rect x="11" y="3" style="fill:#1A1A1A;" width="1" height="1"/>
	<rect x="12" y="3" style="fill:#CADCE8;" width="1" height="1"/>
	<rect x="13" y="3" style="fill:#82AEC8;" width="1" height="1"/>
	<rect x="14" y="3" style="fill:#3A6885;" width="1" height="1"/>
	<polygon style="fill:#3F3827;" points="2,4 2,3 1,3 1,4 1,5 2,5 	"/>
	<rect x="3" y="4" style="fill:#8A8270;" width="1" height="1"/>
	<rect x="4" y="4" style="fill:#3F3827;" width="1" height="1"/>
	<polygon style="fill:#8A8270;" points="6,5 7,5 7,4 6,4 5,4 5,5 	"/>
	<rect x="7" y="4" style="fill:#3F3827;" width="1" height="1"/>
	<rect x="8" y="4" style="fill:#8A8270;" width="1" height="1"/>
	<rect x="10" y="4" style="fill:#1A1A1A;" width="1" height="1"/>
	<rect x="11" y="4" style="fill:#CADCE8;" width="1" height="1"/>
	<rect x="12" y="4" style="fill:#82AEC8;" width="1" height="1"/>
	<rect x="13" y="4" style="fill:#3A6885;" width="1" height="1"/>
	<rect x="14" y="4" style="fill:#1A1A1A;" width="1" height="1"/>
	<rect x="3" y="5" style="fill:#3F3827;" width="1" height="1"/>
	<rect x="5" y="5" style="fill:#3F3827;" width="1" height="1"/>
	<polygon style="fill:#E0D6BF;" points="9,6 9,5 8,5 7,5 6,5 6,6 6,7 6,8 7,8 7,7 8,7 8,6 	"/>
	<rect x="9" y="5" style="fill:#1A1A1A;" width="1" height="1"/>
	<rect x="12" y="5" style="fill:#3A6885;" width="1" height="1"/>
	<rect x="13" y="5" style="fill:#1A1A1A;" width="1" height="1"/>
	<polygon style="fill:#F2ECDF;" points="14,6 14,7 14,8 14,9 15,9 15,8 15,7 15,6 15,5 14,5 	"/>
	<rect x="3" y="6" style="fill:#8A8270;" width="1" height="1"/>
	<rect x="4" y="6" style="fill:#3F3827;" width="1" height="1"/>
	<rect x="8" y="6" style="fill:#1A1A1A;" width="1" height="1"/>
	<rect x="11" y="6" style="fill:#3A6885;" width="1" height="1"/>
	<rect x="12" y="6" style="fill:#1A1A1A;" width="1" height="1"/>
	<polygon style="fill:#E0D6BF;" points="13,7 12,7 12,8 13,8 14,8 14,7 14,6 13,6 	"/>
	<polygon style="fill:#3F3827;" points="15,7 15,8 15,9 15,10 15,11 16,11 16,10 16,9 16,8 16,7 16,6 16,5 15,5 15,6 	"/>
	<polygon style="fill:#3F3827;" points="1,7 1,6 1,5 0,5 0,6 0,7 0,8 0,9 1,9 1,8 	"/>
	<polygon style="fill:#8A8270;" points="6,8 6,7 6,6 5,6 5,7 4,7 4,8 5,8 	"/>
	<polygon style="fill:#82AEC8;" points="10,8 10,7 11,7 11,6 12,6 12,5 11,5 10,5 10,6 9,6 9,7 8,7 8,8 9,8 	"/>
	<rect x="10" y="7" style="fill:#3A6885;" width="1" height="1"/>
	<rect x="11" y="7" style="fill:#1A1A1A;" width="1" height="1"/>
	<polygon style="fill:#E0D6BF;" points="2,8 3,8 4,8 4,7 3,7 3,6 3,5 3,4 2,4 2,5 1,5 1,6 1,7 1,8 1,9 2,9 	"/>
	<polygon style="fill:#8A8270;" points="3,8 2,8 2,9 3,9 4,9 4,8 	"/>
	<rect x="10" y="8" style="fill:#1A1A1A;" width="1" height="1"/>
	<rect x="11" y="8" style="fill:#C7BCA2;" width="1" height="1"/>
	<rect x="12" y="8" style="fill:#3F3827;" width="1" height="1"/>
	<rect x="13" y="8" style="fill:#8A8270;" width="1" height="1"/>
	<polygon style="fill:#3F3827;" points="3,9 2,9 1,9 1,10 2,10 3,10 4,10 4,9 	"/>
	<rect x="11" y="9" style="fill:#3F3827;" width="1" height="1"/>
	<rect x="13" y="9" style="fill:#3F3827;" width="1" height="1"/>
	<polygon style="fill:#8A8270;" points="15,9 14,9 14,10 14,11 15,11 15,10 	"/>
	<rect x="4" y="10" style="fill:#1A1A1A;" width="1" height="1"/>
	<polygon style="fill:#FD2B7C;" points="6,10 5,10 5,11 6,11 7,11 7,10 	"/>
	<polygon style="fill:#3F3827;" points="8,8 7,8 6,8 5,8 4,8 4,9 5,9 5,10 6,10 7,10 7,11 7,12 7,13 7,14 8,14 8,13 8,12 9,12 9,11 
		9,8 	"/>
	<polygon style="fill:#3A6885;" points="9,8 8,8 8,9 9,9 10,9 10,8 	"/>
	<polygon style="fill:#1A1A1A;" points="9,9 8,9 8,8 8,7 7,7 7,8 7,9 6,9 5,9 5,10 6,10 7,10 7,11 7,12 8,12 8,11 8,10 9,10 10,10 
		10,9 	"/>
	<polygon style="fill:#E0D6BF;" points="12,10 11,10 11,9 10,9 10,10 10,11 10,12 10,13 11,13 12,13 12,12 13,12 13,11 12,11 	"/>
	<rect x="12" y="10" style="fill:#3F3827;" width="1" height="1"/>
	<rect x="13" y="10" style="fill:#E0D6BF;" width="1" height="1"/>
	<rect x="3" y="11" style="fill:#1A1A1A;" width="1" height="1"/>
	<polygon style="fill:#910139;" points="6,12 7,12 7,11 6,11 5,11 4,11 4,12 5,12 	"/>
	<rect x="13" y="11" style="fill:#8A8270;" width="1" height="1"/>
	<rect x="14" y="11" style="fill:#3F3827;" width="1" height="1"/>
	<polygon style="fill:#1A1A1A;" points="6,12 5,12 4,12 4,13 5,13 6,13 7,13 7,12 	"/>
	<rect x="12" y="12" style="fill:#8A8270;" width="1" height="1"/>
	<rect x="13" y="12" style="fill:#3F3827;" width="1" height="1"/>
	<polygon style="fill:#8A8270;" points="11,13 10,13 10,12 10,11 10,10 9,10 9,11 9,12 8,12 8,13 8,14 9,14 10,14 11,14 12,14 
		12,13 	"/>
	<rect x="12" y="13" style="fill:#3F3827;" width="1" height="1"/>
	<polygon style="fill:#3F3827;" points="10,14 9,14 8,14 8,15 9,15 10,15 11,15 12,15 12,14 11,14 	"/>
</g>
</svg>
