<?xml version="1.0" encoding="iso-8859-1"?>
<!-- Generator: Adobe Illustrator 24.2.3, SVG Export Plug-In . SVG Version: 6.00 Build 0)  -->
<svg version="1.1" id="Layer_1" xmlns="http://www.w3.org/2000/svg" xmlns:xlink="http://www.w3.org/1999/xlink" x="0px" y="0px"
	 viewBox="0 0 9 9" style="enable-background:new 0 0 9 9;" xml:space="preserve">
<g>
	<polygon style="fill:#602724;" points="3,2 4,2 5,2 6,2 7,2 7,0.775 6,0.775 5,0.775 4,0.775 3,0.775 2,0.775 2,2 	"/>
	<polygon style="fill:#602724;" points="8.5,5 8.5,4 8.5,3 8.5,2 7,2 7,3 7,4 7,5 7,6 7,7 8.5,7 8.5,6 	"/>
	<polygon style="fill:#602724;" points="2,6 2,5 2,4 2,3 2,2 0.6,2 0.6,3 0.6,4 0.6,5 0.6,6 0.6,7 2,7 	"/>
	<polygon style="fill:#602724;" points="6,7 5,7 4,7 3,7 2,7 2,8.216 3,8.216 4,8.216 5,8.216 6,8.216 7,8.216 7,7 	"/>
	<polygon style="fill:#602724;" points="8,5.2 8,3.8 8,2.4 8,1 1,1 1,2.4 1,3.8 1,5.2 1,6.6 1,8 8,8 8,6.6 	"/>
	<rect x="2" y="2" style="fill:#E8E8E8;" width="5" height="5"/>
	<polygon style="fill:#FFFFFF;" points="4,3 4,2 3,2 2,2 2,3 3,3 	"/>
	<rect x="5" y="2" style="fill:#DBDBDB;" width="1" height="1"/>
	<polygon style="fill:#A6A6A6;" points="6,3 6,4 6,5 6,6 7,6 7,5 7,4 7,3 7,2 6,2 	"/>
	<polygon style="fill:#BFBFBF;" points="5,4 5,5 6,5 6,4 6,3 5,3 	"/>
	<polygon style="fill:#E8E8E8;" points="3,4 3,3 2,3 2,4 2,5 3,5 	"/>
	<polygon style="fill:#BFBFBF;" points="4,4 4,3 3,3 3,4 3,5 3,6 4,6 4,5 	"/>
	<polygon style="fill:#131313;" points="5,4 5,3 4,3 4,4 4,5 4,6 5,6 6,6 6,5 5,5 	"/>
	<polygon style="fill:#DBDBDB;" points="3,5 2,5 2,6 2,7 3,7 3,6 	"/>
	<polygon style="fill:#A6A6A6;" points="4,6 3,6 3,7 4,7 5,7 5,6 	"/>
	<polygon style="fill:#919191;" points="5,6 5,7 6,7 7,7 7,6 6,6 	"/>
	<g id="OuterStroke">
		<polygon style="fill:#131313;" points="5,8 4,8 3,8 2,8 2,9 3,9 4,9 5,9 6,9 7,9 7,8 6,8 		"/>
		<polygon style="fill:#131313;" points="1,5 1,4 1,3 1,2 0,2 0,3 0,4 0,5 0,6 0,7 1,7 1,6 		"/>
		<polygon style="fill:#131313;" points="8,2 8,3 8,4 8,5 8,6 8,7 9,7 9,6 9,5 9,4 9,3 9,2 		"/>
		<polygon style="fill:#131313;" points="4,1 5,1 6,1 7,1 7,0 6,0 5,0 4,0 3,0 2,0 2,1 3,1 		"/>
		<rect x="1" y="1" style="fill:#131313;" width="1" height="1"/>
		<rect x="7" y="1" style="fill:#131313;" width="1" height="1"/>
		<rect x="1" y="7" style="fill:#131313;" width="1" height="1"/>
		<rect x="7" y="7" style="fill:#131313;" width="1" height="1"/>
	</g>
</g>
</svg>
